<svg version="1.1" id="Layer_1" xmlns="http://www.w3.org/2000/svg" xmlns:xlink="http://www.w3.org/1999/xlink" x="0px" y="0px"
	 width="100%" viewBox="0 0 1600 583" enable-background="new 0 0 1600 583" xml:space="preserve">
<path fill="#000000" opacity="1.000000" stroke="none" 
	d="
M1232.000000,584.000000 
	C821.380249,584.000000 411.260437,584.000000 1.070337,584.000000 
	C1.070337,389.735809 1.070337,195.471558 1.070337,1.103661 
	C534.333313,1.103661 1067.666626,1.103661 1600.978516,1.103661 
	C1600.978516,195.406479 1600.978516,389.703247 1600.978516,584.000000 
	C1478.137939,584.000000 1355.318970,584.000000 1232.000000,584.000000 
M344.790894,192.966629 
	C357.160400,192.979416 369.529877,192.992203 382.182892,193.723618 
	C382.445068,194.125168 382.815948,194.492661 382.953888,194.933105 
	C391.833008,223.292419 400.693298,251.657639 409.428864,279.617920 
	C425.536530,279.617920 441.222900,279.617920 457.411255,279.617920 
	C451.140045,262.276794 445.046692,245.437241 438.960602,228.595078 
	C434.674011,216.732788 430.397278,204.866943 427.038544,193.006943 
	C452.376434,192.947037 477.714355,192.887131 503.496674,192.972931 
	C503.496674,192.972931 503.959045,193.043549 503.997131,193.974716 
	C503.997131,222.560562 503.997131,251.146408 503.997131,279.744202 
	C519.589600,279.744202 534.655212,279.744202 550.000000,279.744202 
	C550.000000,277.861572 550.000000,276.222992 550.000000,274.584412 
	C550.000000,249.266693 549.977173,223.948914 550.046204,198.631378 
	C550.051331,196.744965 550.714417,194.860336 550.979919,192.968460 
	C550.979919,192.968460 550.961792,193.058548 551.903320,193.004211 
	C579.550415,193.002563 607.197571,193.000916 634.989075,193.926788 
	C634.989075,222.506042 634.989075,251.085297 634.989075,279.649597 
	C682.940735,279.649597 730.424866,279.649597 777.661804,279.649597 
	C777.661804,265.901031 777.661804,252.504150 777.661804,238.755096 
	C745.610352,238.755096 713.896179,238.755096 682.153076,238.755096 
	C682.153076,223.265564 682.153076,208.137909 683.069763,193.008301 
	C757.550903,193.005539 832.031982,193.004211 906.513123,192.993713 
	C909.009399,192.993362 911.505615,192.900558 914.922180,192.991608 
	C1096.770386,192.990585 1278.618652,192.991760 1460.466797,192.951660 
	C1462.004883,192.951324 1463.542847,192.394073 1465.827759,191.628387 
	C1465.884521,184.564804 1465.998047,177.500854 1465.951050,170.437958 
	C1465.941528,169.011261 1465.324585,167.588608 1464.509521,166.006531 
	C1464.348267,165.960358 1464.186890,165.914185 1463.589966,165.143356 
	C1462.427612,165.095062 1461.265381,165.004501 1460.103027,165.004471 
	C1275.889282,164.998703 1091.675537,164.999069 907.461731,165.006714 
	C905.966614,165.006775 904.471436,165.108749 902.051819,165.016968 
	C828.726379,164.999542 755.400879,164.982117 682.005310,164.034134 
	C682.005310,149.101639 682.005310,134.169144 682.005310,118.845856 
	C713.286316,118.845856 744.024597,118.845856 774.721375,118.845856 
	C774.721375,105.041641 774.721375,91.636772 774.721375,78.277489 
	C728.040527,78.277489 681.638916,78.277489 634.914246,78.277489 
	C634.914246,107.358444 634.914246,136.162643 633.987427,164.995605 
	C606.351807,164.985458 578.716125,164.975311 550.730652,164.184387 
	C550.487061,159.943893 550.073120,155.704971 550.033447,151.462555 
	C549.932800,140.704620 550.000000,129.945099 550.000000,118.803314 
	C570.997437,118.803314 591.400940,118.803314 611.705200,118.803314 
	C611.705200,105.004532 611.705200,91.601387 611.705200,78.278854 
	C555.018188,78.278854 498.626404,78.278854 442.278412,78.278854 
	C442.278412,91.962288 442.278412,105.365013 442.278412,119.157104 
	C462.957397,119.157104 483.360840,119.157104 503.941742,119.157104 
	C503.941742,134.685669 503.941742,149.821426 503.010651,164.983231 
	C473.689270,164.971848 444.367859,164.960449 415.003082,164.152008 
	C409.899475,149.859848 404.799255,135.566452 399.691223,121.275864 
	C395.063232,108.328331 390.448425,95.376007 385.778076,82.443756 
	C384.669556,79.374298 382.954315,77.676308 379.066681,77.869881 
	C370.603668,78.291267 362.104980,77.965775 353.621277,78.014694 
	C349.486816,78.038528 344.608246,76.927353 341.460968,78.744797 
	C339.052643,80.135513 338.857086,85.325203 337.628265,88.807831 
	C337.150421,90.162109 336.494537,91.452721 335.993835,92.799858 
	C330.146362,108.531441 324.241791,124.242363 318.505219,140.014359 
	C315.503815,148.266449 312.804016,156.628265 309.033752,164.990662 
	C288.703125,164.976196 268.372498,164.961731 247.707535,164.164505 
	C247.471695,162.420715 247.033493,160.677292 247.030426,158.933105 
	C246.986069,133.614227 247.000000,108.295250 247.000000,82.976295 
	C247.000000,81.381584 247.000000,79.786873 247.000000,78.291626 
	C231.338913,78.291626 216.272110,78.291626 200.918243,78.291626 
	C200.918243,107.377670 200.918243,136.172714 199.990646,164.988953 
	C173.336212,164.971741 146.681793,164.954514 120.001923,164.008133 
	C120.001923,135.417709 120.001923,106.827286 120.001923,78.275780 
	C104.042946,78.275780 88.640594,78.275780 72.958008,78.275780 
	C72.958008,107.349594 72.958008,136.148361 72.046043,164.994812 
	C68.343391,165.334869 64.640739,165.674927 61.016598,166.012955 
	C61.016598,166.012955 61.021145,165.934540 60.220375,166.315979 
	C60.145786,174.514938 60.056217,182.713898 60.046818,190.912933 
	C60.046406,191.271698 60.780502,191.631317 61.881207,192.358932 
	C65.254852,192.291824 68.628494,192.224716 72.111855,192.620453 
	C72.306625,192.912994 72.579529,193.050385 72.995110,193.963882 
	C72.995110,222.563034 72.995110,251.162201 72.995110,279.720215 
	C88.958603,279.720215 104.364258,279.720215 120.084000,279.720215 
	C120.084000,250.633560 120.084000,221.825928 121.011169,193.005936 
	C147.643143,193.008331 174.275131,193.010712 200.993454,193.945251 
	C200.993454,222.501419 200.993454,251.057602 200.993454,279.651917 
	C216.574463,279.651917 231.740906,279.651917 247.096298,279.651917 
	C247.096298,250.541000 247.096298,221.778030 248.021790,193.009323 
	C264.989441,193.017441 281.957062,193.025558 298.987701,193.812607 
	C288.599426,222.396988 278.211151,250.981369 267.730133,279.820923 
	C284.275726,279.820923 300.052917,279.820923 315.637390,279.820923 
	C324.802979,250.758133 333.899994,221.912918 343.430176,192.969421 
	C343.430176,192.969421 343.837189,192.793488 344.790894,192.966629 
M1317.973389,501.694336 
	C1319.090332,505.749054 1321.557861,507.192352 1325.911499,507.105530 
	C1340.064453,506.823364 1354.226440,507.008911 1368.385010,506.983734 
	C1369.577881,506.981598 1370.770386,506.750671 1372.263672,506.594604 
	C1357.290771,481.280182 1342.602295,456.446533 1328.494873,432.595306 
	C1334.769531,426.464935 1341.311035,421.230042 1346.423828,414.850220 
	C1359.062378,399.079742 1363.392822,380.607117 1359.774292,360.946045 
	C1356.776245,344.656769 1348.768311,330.488647 1335.997437,319.582550 
	C1325.319946,310.464203 1312.901733,304.359894 1298.742065,304.143890 
	C1268.099976,303.676514 1237.446045,303.996368 1206.796875,304.013092 
	C1205.543823,304.013763 1204.290771,304.205841 1203.323364,304.285309 
	C1203.323364,372.098389 1203.323364,439.476685 1203.323364,506.681641 
	C1219.048828,506.681641 1234.449463,506.681641 1250.231201,506.681641 
	C1250.231201,484.632538 1250.231201,462.899872 1250.231201,441.000061 
	C1260.096924,441.000061 1269.577881,440.897156 1279.051514,441.114807 
	C1280.417725,441.146179 1282.257202,442.405151 1283.012817,443.629669 
	C1287.817627,451.417358 1292.321167,459.389923 1297.035278,467.234741 
	C1303.825928,478.535370 1310.711670,489.778961 1317.973389,501.694336 
M343.062805,441.000061 
	C344.290558,441.747864 346.003143,442.198517 346.671478,443.289124 
	C353.814728,454.945068 360.826721,466.682129 367.805237,478.438202 
	C373.387665,487.842438 378.874237,497.303589 384.448456,506.816406 
	C401.376862,506.816406 418.444763,506.816406 436.148743,506.816406 
	C421.220825,481.530182 406.536530,456.656677 392.087219,432.181183 
	C397.753387,426.934509 403.704437,422.345001 408.534149,416.782013 
	C424.009949,398.956665 427.716248,378.145752 422.111145,355.636108 
	C418.238617,340.084229 409.619019,327.416046 396.979034,317.412659 
	C386.771790,309.334534 375.186584,304.376282 362.359772,304.162384 
	C332.037750,303.656769 301.701569,303.996826 271.371094,304.010010 
	C269.946198,304.010620 268.521362,304.157104 267.332031,304.222656 
	C267.332031,372.070190 267.332031,439.471283 267.332031,506.665100 
	C283.071777,506.665100 298.477936,506.665100 314.275269,506.665100 
	C314.275269,484.591492 314.275269,462.851379 314.275269,441.000000 
	C323.831299,441.000000 332.988678,441.000000 343.062805,441.000061 
M987.500000,507.000000 
	C997.143494,507.000000 1006.786926,507.000000 1017.076599,507.000000 
	C1009.285400,495.991791 1001.858765,485.314148 994.241821,474.774017 
	C976.622192,450.392426 958.908508,426.078796 941.239258,401.733063 
	C939.529724,399.377411 936.497559,396.950745 936.563660,394.627838 
	C936.629639,392.313751 939.797546,390.066132 941.652588,387.828491 
	C953.005066,374.134521 964.316895,360.406250 975.749084,346.779053 
	C985.210266,335.501434 994.850220,324.373962 1004.339600,313.119843 
	C1006.678345,310.346161 1008.739868,307.338715 1011.259949,304.000000 
	C995.262695,304.000000 980.098145,304.219910 964.947327,303.861298 
	C960.600037,303.758423 957.752625,305.221771 955.195557,308.296539 
	C945.174377,320.346741 935.209534,332.445404 925.057251,344.384460 
	C911.897034,359.860748 898.577942,375.201935 884.760681,391.259644 
	C884.760681,361.677307 884.760681,332.935333 884.760681,304.300629 
	C868.997742,304.300629 853.592346,304.300629 838.298889,304.300629 
	C838.298889,372.002899 838.298889,439.404175 838.298889,506.698120 
	C854.004822,506.698120 869.410217,506.698120 885.000000,506.698120 
	C885.000000,487.749847 884.981018,469.102783 885.034058,450.455902 
	C885.038513,448.888489 884.970642,446.791840 885.878662,445.840851 
	C892.397217,439.013947 899.159546,432.419830 905.864685,425.731689 
	C906.564392,426.258484 907.051025,426.471832 907.312622,426.843597 
	C925.432434,452.593140 943.504456,478.376465 961.718262,504.059235 
	C962.714355,505.463837 964.844299,506.788361 966.508057,506.868256 
	C973.158752,507.187561 979.833923,507.000000 987.500000,507.000000 
M1032.000000,403.500000 
	C1032.000000,437.923645 1032.000000,472.347321 1032.000000,506.524841 
	C1032.704468,506.829803 1032.847412,506.945831 1032.990356,506.945923 
	C1078.979736,506.969147 1124.969238,506.954895 1170.958374,507.058105 
	C1174.485962,507.066010 1175.078857,505.502380 1175.045776,502.490723 
	C1174.928467,491.827698 1174.789673,481.156494 1175.100464,470.501251 
	C1175.230469,466.042206 1173.812744,464.877747 1169.447876,464.906006 
	C1141.122070,465.089264 1112.794434,465.000000 1084.467407,465.000000 
	C1082.706177,465.000000 1080.944824,465.000000 1079.301147,465.000000 
	C1079.301147,450.327209 1079.301147,436.256317 1079.301147,421.796295 
	C1106.004028,421.796295 1132.407471,421.796295 1158.699219,421.796295 
	C1158.699219,408.994659 1158.699219,396.590027 1158.699219,383.796997 
	C1131.996704,383.796997 1105.593262,383.796997 1079.300293,383.796997 
	C1079.300293,370.662201 1079.300293,357.924316 1079.300293,344.798889 
	C1110.334961,344.798889 1141.070801,344.798889 1171.701172,344.798889 
	C1171.701172,330.998749 1171.701172,317.594421 1171.701172,304.292236 
	C1125.003784,304.292236 1078.605591,304.292236 1032.000000,304.292236 
	C1032.000000,337.222717 1032.000000,369.861359 1032.000000,403.500000 
M1389.000000,359.801147 
	C1389.000000,363.967438 1388.886719,368.137390 1389.020386,372.299408 
	C1389.508179,387.484711 1395.742920,399.491333 1408.485229,408.136597 
	C1424.482666,418.990234 1443.075684,423.110107 1460.992432,429.077667 
	C1469.154785,431.796295 1477.139893,435.121185 1485.017944,438.595978 
	C1491.897095,441.630096 1492.826660,447.989197 1491.866699,454.399567 
	C1491.059692,459.786835 1486.504028,462.404205 1481.767822,463.922150 
	C1472.698486,466.828796 1463.282104,466.658234 1454.130981,464.865479 
	C1434.696655,461.058167 1416.709473,453.498108 1400.378418,442.238403 
	C1393.646606,455.708313 1386.913330,469.181305 1379.848145,483.318390 
	C1386.993774,486.929199 1393.918457,490.616547 1401.000977,493.970612 
	C1419.044312,502.515259 1438.361206,506.344940 1458.044678,507.849670 
	C1474.581543,509.113831 1490.997681,507.248444 1506.551880,500.951599 
	C1522.118530,494.649689 1533.893311,484.228668 1539.464233,467.979218 
	C1543.223999,457.012238 1543.748779,445.616211 1541.934692,434.202606 
	C1540.347046,424.214325 1535.946655,415.310028 1528.666382,408.419189 
	C1519.663086,399.897369 1508.551880,394.680695 1496.766724,390.968109 
	C1480.875732,385.962128 1464.894165,381.223755 1449.120483,375.872589 
	C1441.967773,373.446045 1436.491577,367.132965 1436.927002,360.516113 
	C1437.366089,353.844604 1441.499023,347.877960 1449.430176,345.798584 
	C1458.052246,343.538116 1466.483032,343.591370 1475.012573,345.498230 
	C1489.869141,348.819641 1503.675415,354.685822 1516.390015,363.176208 
	C1523.166138,350.337769 1529.829346,337.713409 1536.937988,324.244934 
	C1527.339844,319.902008 1518.583496,315.058044 1509.250000,311.943695 
	C1498.013916,308.194489 1486.424072,304.608063 1474.732666,303.382935 
	C1463.932129,302.251160 1452.608521,303.297943 1441.847900,305.233734 
	C1424.281250,308.393829 1409.414917,316.906769 1398.997925,332.016418 
	C1393.407227,340.125610 1390.583496,349.264709 1389.000000,359.801147 
M568.402405,462.923218 
	C572.334839,476.127747 576.173462,489.361847 580.312256,502.501373 
	C580.862000,504.246765 582.910095,506.775116 584.309570,506.804779 
	C599.104980,507.118744 613.909668,506.999268 629.303772,506.999268 
	C628.829224,505.211273 628.558899,503.848907 628.108887,502.548798 
	C622.765137,487.110626 617.339783,471.700562 612.042786,456.246399 
	C601.656860,425.945038 591.349976,395.616516 580.987976,365.306885 
	C574.354126,345.902374 567.719788,326.497742 560.935364,307.145874 
	C560.487244,305.867706 558.769104,304.148682 557.623413,304.134674 
	C541.487183,303.937439 525.347717,304.000580 509.362366,304.000580 
	C485.996216,371.705719 462.747162,439.071594 439.303986,506.999939 
	C455.060028,506.999939 469.540283,507.065674 484.017670,506.890564 
	C485.355194,506.874390 487.503265,505.593933 487.874847,504.446869 
	C492.073425,491.487457 496.213928,478.499023 499.847473,465.373718 
	C500.775055,462.023102 501.817230,460.905609 505.240204,460.930695 
	C524.727234,461.073608 544.216003,460.976013 563.703857,461.049103 
	C565.140503,461.054504 566.574463,461.759705 568.402405,462.923218 
M786.998840,444.498993 
	C783.551208,442.568024 780.103577,440.637085 776.933105,438.861359 
	C773.957764,443.175751 771.806091,447.462250 768.610229,450.726379 
	C755.396057,464.222778 739.096069,468.591461 720.840332,464.941040 
	C699.565979,460.687012 687.468018,446.417084 681.013367,426.577881 
	C677.292419,415.140930 677.149597,403.482574 678.964050,391.671204 
	C680.796509,379.742767 685.188110,368.973480 693.443481,360.136627 
	C705.777527,346.933838 720.932190,342.101471 738.913086,344.898193 
	C756.098511,347.571228 769.440430,354.983154 776.385376,371.893951 
	C788.420166,363.488800 800.415710,355.111053 812.469849,346.692413 
	C801.743103,327.502899 786.301086,315.078156 766.469238,308.033203 
	C749.590210,302.037231 732.199768,301.975525 714.626770,303.941620 
	C701.245972,305.438660 688.917786,309.903259 677.713196,317.098999 
	C657.671082,329.970306 643.134338,347.565186 635.457214,370.218811 
	C629.671143,387.292114 628.256470,404.780609 631.905334,422.724213 
	C637.663513,451.041077 651.960571,473.809937 675.309692,490.593018 
	C690.419434,501.453766 707.546204,507.457916 726.319153,507.977905 
	C746.887512,508.547638 766.077026,503.448181 784.027405,493.491394 
	C795.868225,486.923523 805.608154,478.267822 812.374146,466.308838 
	C814.672424,462.246521 814.162354,460.130005 810.140564,457.948425 
	C802.520386,453.815033 795.099976,449.313141 786.998840,444.498993 
M136.000000,487.499573 
	C136.000000,493.931396 136.000000,500.363190 136.000000,506.709900 
	C151.648682,506.709900 166.720016,506.709900 182.180176,506.709900 
	C182.180176,452.686218 182.180176,398.951630 182.180176,344.821594 
	C202.977432,344.821594 223.384033,344.821594 243.709167,344.821594 
	C243.709167,331.016479 243.709167,317.611542 243.709167,304.287201 
	C187.017899,304.287201 130.617889,304.287201 74.289688,304.287201 
	C74.289688,317.981232 74.289688,331.386139 74.289688,345.184143 
	C94.983246,345.184143 115.389740,345.184143 136.000000,345.184143 
	C136.000000,392.554657 136.000000,439.527222 136.000000,487.499573 
M889.985107,113.475563 
	C896.817871,121.975739 904.196106,130.109222 910.259033,139.127014 
	C913.404968,143.805969 916.773499,142.801804 920.771729,142.941132 
	C920.771729,121.143921 920.771729,99.727272 920.771729,78.227036 
	C918.133362,78.227036 915.728760,78.227036 912.924194,78.227036 
	C912.924194,94.819969 912.924194,111.191376 912.924194,128.897476 
	C910.308899,125.664322 908.486694,123.451965 906.707581,121.205444 
	C896.614197,108.460487 886.249023,95.915245 876.611206,82.834251 
	C873.599609,78.746704 870.860535,77.165268 866.283264,78.347519 
	C866.283264,99.985603 866.283264,121.401337 866.283264,142.710175 
	C868.981812,142.710175 871.389282,142.710175 874.205322,142.710175 
	C874.205322,126.412773 874.205322,110.401329 874.205322,93.266808 
	C879.760864,100.441536 884.611023,106.705322 889.985107,113.475563 
M1449.440918,118.954590 
	C1449.066406,118.241936 1448.794434,117.447670 1448.302124,116.828735 
	C1439.086182,105.242195 1429.534546,93.903595 1420.786865,81.975021 
	C1417.974854,78.140480 1415.303101,77.537384 1411.353760,78.260490 
	C1411.353760,99.854698 1411.353760,121.394974 1411.353760,142.825394 
	C1414.002686,142.825394 1416.293823,142.825394 1418.959839,142.825394 
	C1418.959839,126.603729 1418.959839,110.550659 1418.959839,93.952934 
	C1419.824829,94.560867 1420.257080,94.740379 1420.511230,95.061180 
	C1431.921265,109.458611 1443.656616,123.618599 1454.508179,138.426086 
	C1457.854736,142.992783 1461.171997,143.273682 1465.782959,142.811325 
	C1465.782959,121.171272 1465.782959,99.753822 1465.782959,78.214386 
	C1463.157959,78.214386 1460.754028,78.214386 1457.950684,78.214386 
	C1457.950684,94.798531 1457.950684,111.173973 1457.950684,128.700653 
	C1454.795654,125.044289 1452.383545,122.248909 1449.440918,118.954590 
M1391.649292,102.122276 
	C1389.560303,98.030548 1387.859985,93.677368 1385.313965,89.892998 
	C1375.081299,74.682884 1353.528564,73.573303 1341.069092,86.709091 
	C1331.480347,96.818123 1329.100098,109.214821 1333.924927,122.713081 
	C1337.753296,133.423843 1344.869629,141.223206 1356.036377,142.744492 
	C1370.893555,144.768539 1379.664062,141.394257 1388.046021,127.583778 
	C1392.720581,119.881813 1393.227295,111.546928 1391.649292,102.122276 
M1057.979248,95.777466 
	C1056.981567,94.133339 1056.082153,92.419304 1054.970703,90.856049 
	C1045.191406,77.101051 1028.540405,73.637070 1014.716064,82.759834 
	C1001.539673,91.454933 996.867981,106.826187 1002.879089,123.375229 
	C1010.783813,145.137787 1036.049683,149.710007 1051.092529,134.990601 
	C1061.827881,124.485992 1064.125732,110.901772 1057.979248,95.777466 
M1108.040161,122.561646 
	C1105.350098,129.208679 1102.659912,135.855713 1099.850464,142.797653 
	C1102.971924,142.797653 1105.739746,142.797653 1108.654053,142.797653 
	C1110.563965,137.598190 1112.259521,132.268204 1114.546021,127.205154 
	C1115.206543,125.742577 1117.528687,124.215805 1119.152710,124.142975 
	C1126.460083,123.815308 1133.793335,123.893410 1141.109253,124.103996 
	C1142.343994,124.139534 1144.149902,125.267960 1144.643799,126.363800 
	C1146.476685,130.430542 1148.244751,134.602173 1149.313721,138.913773 
	C1150.186523,142.434052 1151.892212,143.503601 1155.220337,143.033585 
	C1156.643311,142.832626 1158.118286,143.000000 1159.958008,143.000000 
	C1158.206299,139.143356 1156.490479,135.694672 1155.048828,132.134995 
	C1148.146118,115.090775 1141.405273,97.979874 1134.308228,81.017555 
	C1133.692627,79.546082 1131.000244,78.676704 1129.099365,78.072876 
	C1126.318237,77.189507 1125.559692,79.299240 1124.966675,81.487038 
	C1124.635010,82.711342 1123.969727,83.842522 1123.489258,85.029655 
	C1118.508301,97.337143 1113.534058,109.647423 1108.040161,122.561646 
M1222.030884,89.350693 
	C1212.536255,73.386726 1187.342651,74.503899 1176.564697,88.066032 
	C1164.877075,102.772888 1166.932373,122.469299 1179.848877,135.632294 
	C1191.713013,147.722748 1218.098389,144.752731 1224.841797,128.489563 
	C1222.833130,127.253563 1220.820068,126.014893 1218.557495,124.622719 
	C1217.557861,126.063187 1216.739380,127.247757 1215.915771,128.428574 
	C1212.036743,133.989273 1201.571777,137.305542 1194.902344,135.472031 
	C1181.481567,131.782455 1173.453003,115.724579 1178.501831,100.877769 
	C1181.985962,90.631996 1190.713257,84.435577 1200.285400,85.029091 
	C1207.930420,85.503113 1213.583252,89.414551 1217.374756,95.931282 
	C1219.422852,94.686630 1221.286499,93.695709 1222.931885,92.422943 
	C1223.226807,92.194916 1222.620605,90.802208 1222.030884,89.350693 
M968.000000,116.500000 
	C968.000000,106.403343 968.000000,96.306686 968.000000,85.829483 
	C975.652832,85.829483 982.739624,85.829483 989.713318,85.829483 
	C989.713318,83.023338 989.713318,80.616295 989.713318,78.279327 
	C972.013916,78.279327 954.602661,78.279327 937.284912,78.279327 
	C937.284912,80.973465 937.284912,83.380402 937.284912,86.173172 
	C944.642334,86.173172 951.719482,86.173172 959.174072,86.173172 
	C959.174072,105.317741 959.174072,124.061905 959.174072,142.713043 
	C962.311279,142.713043 965.050232,142.713043 968.000000,142.713043 
	C968.000000,134.118698 968.000000,125.809349 968.000000,116.500000 
M1267.000000,93.560516 
	C1267.000000,91.123161 1267.000000,88.685814 1267.000000,85.866158 
	C1274.611694,85.866158 1281.696289,85.866158 1288.732910,85.866158 
	C1288.732910,83.059433 1288.732910,80.653503 1288.732910,78.263306 
	C1271.052734,78.263306 1253.640869,78.263306 1236.266846,78.263306 
	C1236.266846,80.940239 1236.266846,83.346169 1236.266846,86.140846 
	C1243.606079,86.140846 1250.685425,86.140846 1258.143311,86.140846 
	C1258.143311,105.284882 1258.143311,124.029610 1258.143311,142.728577 
	C1261.281738,142.728577 1264.020142,142.728577 1267.000000,142.728577 
	C1267.000000,126.486908 1267.000000,110.515472 1267.000000,93.560516 
M835.000000,113.500000 
	C835.000000,123.269318 835.000000,133.038635 835.000000,142.713303 
	C838.310486,142.713303 841.049622,142.713303 843.718018,142.713303 
	C843.718018,121.016891 843.718018,99.608360 843.718018,78.286667 
	C840.689575,78.286667 837.950439,78.286667 835.000000,78.286667 
	C835.000000,89.881256 835.000000,101.190628 835.000000,113.500000 
M1305.003296,141.254211 
	C1307.435669,142.065079 1309.868164,142.875946 1312.713379,143.824432 
	C1312.713379,121.147179 1312.713379,99.661995 1312.713379,78.284683 
	C1310.016968,78.284683 1307.614624,78.284683 1305.000122,78.284683 
	C1305.000122,99.144829 1305.000122,119.721146 1305.003296,141.254211 
z"/>
<path fill="#F90000" opacity="1.000000" stroke="none" 
	d="
M72.002144,192.157608 
	C68.628494,192.224716 65.254852,192.291824 61.455818,191.712051 
	C61.027336,182.688293 61.024242,174.311417 61.021145,165.934540 
	C61.021145,165.934540 61.016598,166.012955 61.450012,166.013840 
	C206.615036,166.010071 351.346649,166.010712 496.078278,165.994034 
	C514.062988,165.991974 532.047668,165.898102 550.494934,165.913055 
	C666.964294,165.985809 782.971130,165.992813 898.977966,165.992188 
	C900.306152,165.992188 901.634338,165.893005 903.425781,165.907196 
	C1087.439575,165.981903 1270.989990,165.990158 1454.540527,165.991730 
	C1457.702271,165.991760 1460.863892,165.911057 1464.025635,165.868011 
	C1464.186890,165.914185 1464.348267,165.960358 1464.556152,166.451767 
	C1464.402832,175.263107 1464.202759,183.629211 1463.537598,192.001709 
	C1282.032715,192.003937 1100.993042,191.999359 919.953430,192.001083 
	C917.957458,192.001099 915.961426,192.082977 913.501770,192.073669 
	C852.974487,192.012527 792.910828,191.993729 732.847229,192.003036 
	C715.879639,192.005661 698.911987,192.090561 681.482544,192.081039 
	C665.700562,192.064621 650.380371,192.104889 634.591614,192.082291 
	C607.901672,192.011856 581.680359,191.986847 555.459229,192.042175 
	C553.959351,192.045334 552.460876,192.704620 550.961792,193.058548 
	C550.961792,193.058548 550.979919,192.968460 550.552856,192.982178 
	C544.121094,192.965424 538.116333,192.934937 531.851746,192.555374 
	C522.086121,192.194031 512.580322,192.181763 502.605103,192.105286 
	C476.735229,192.073257 451.334686,192.105408 425.472778,192.083984 
	C410.697906,192.071991 396.384399,192.113571 381.601685,192.091904 
	C368.718872,192.106842 356.305298,192.185028 343.436493,192.180130 
	C328.667419,192.100006 314.353516,192.102966 299.572449,192.040955 
	C281.717010,192.034088 264.328735,192.092194 246.479736,192.086044 
	C231.033188,192.065063 216.047379,192.108322 200.592453,192.092056 
	C173.392731,192.079453 146.662125,192.126373 119.471733,192.106476 
	C103.342010,192.078979 87.672073,192.118301 72.002144,192.157608 
z"/>
<path fill="#FFFFFF" opacity="1.000000" stroke="none" 
	d="
M1317.765137,501.370605 
	C1310.711670,489.778961 1303.825928,478.535370 1297.035278,467.234741 
	C1292.321167,459.389923 1287.817627,451.417358 1283.012817,443.629669 
	C1282.257202,442.405151 1280.417725,441.146179 1279.051514,441.114807 
	C1269.577881,440.897156 1260.096924,441.000061 1250.231201,441.000061 
	C1250.231201,462.899872 1250.231201,484.632538 1250.231201,506.681641 
	C1234.449463,506.681641 1219.048828,506.681641 1203.323364,506.681641 
	C1203.323364,439.476685 1203.323364,372.098389 1203.323364,304.285309 
	C1204.290771,304.205841 1205.543823,304.013763 1206.796875,304.013092 
	C1237.446045,303.996368 1268.099976,303.676514 1298.742065,304.143890 
	C1312.901733,304.359894 1325.319946,310.464203 1335.997437,319.582550 
	C1348.768311,330.488647 1356.776245,344.656769 1359.774292,360.946045 
	C1363.392822,380.607117 1359.062378,399.079742 1346.423828,414.850220 
	C1341.311035,421.230042 1334.769531,426.464935 1328.494873,432.595306 
	C1342.602295,456.446533 1357.290771,481.280182 1372.263672,506.594604 
	C1370.770386,506.750671 1369.577881,506.981598 1368.385010,506.983734 
	C1354.226440,507.008911 1340.064453,506.823364 1325.911499,507.105530 
	C1321.557861,507.192352 1319.090332,505.749054 1317.765137,501.370605 
M1289.307617,345.000000 
	C1276.229614,345.000000 1263.151489,345.000000 1250.353516,345.000000 
	C1250.353516,363.779266 1250.353516,381.850311 1250.353516,399.999969 
	C1265.365967,399.999969 1280.030396,400.205414 1294.679688,399.825806 
	C1297.593384,399.750305 1300.996826,398.048157 1303.237793,396.047272 
	C1313.508545,386.877228 1315.413818,374.866974 1311.561035,362.543549 
	C1308.331177,352.212372 1301.737183,345.152313 1289.307617,345.000000 
z"/>
<path fill="#FFFFFF" opacity="1.000000" stroke="none" 
	d="
M342.604431,441.000031 
	C332.988678,441.000000 323.831299,441.000000 314.275269,441.000000 
	C314.275269,462.851379 314.275269,484.591492 314.275269,506.665100 
	C298.477936,506.665100 283.071777,506.665100 267.332031,506.665100 
	C267.332031,439.471283 267.332031,372.070190 267.332031,304.222656 
	C268.521362,304.157104 269.946198,304.010620 271.371094,304.010010 
	C301.701569,303.996826 332.037750,303.656769 362.359772,304.162384 
	C375.186584,304.376282 386.771790,309.334534 396.979034,317.412659 
	C409.619019,327.416046 418.238617,340.084229 422.111145,355.636108 
	C427.716248,378.145752 424.009949,398.956665 408.534149,416.782013 
	C403.704437,422.345001 397.753387,426.934509 392.087219,432.181183 
	C406.536530,456.656677 421.220825,481.530182 436.148743,506.816406 
	C418.444763,506.816406 401.376862,506.816406 384.448456,506.816406 
	C378.874237,497.303589 373.387665,487.842438 367.805237,478.438202 
	C360.826721,466.682129 353.814728,454.945068 346.671478,443.289124 
	C346.003143,442.198517 344.290558,441.747864 342.604431,441.000031 
M370.047333,393.424286 
	C372.266327,388.184662 375.118042,383.112671 376.560822,377.667358 
	C378.918884,368.767822 374.294403,353.326660 365.503387,349.054474 
	C361.582458,347.149048 357.177063,345.347198 352.925964,345.181580 
	C340.039215,344.679565 327.120392,345.000000 314.252045,345.000000 
	C314.252045,363.619171 314.252045,381.666199 314.252045,400.000000 
	C327.944305,400.000000 341.392700,399.756866 354.825470,400.109711 
	C360.903900,400.269379 365.718628,398.604675 370.047333,393.424286 
z"/>
<path fill="#FFFFFF" opacity="1.000000" stroke="none" 
	d="
M987.000000,507.000000 
	C979.833923,507.000000 973.158752,507.187561 966.508057,506.868256 
	C964.844299,506.788361 962.714355,505.463837 961.718262,504.059235 
	C943.504456,478.376465 925.432434,452.593140 907.312622,426.843597 
	C907.051025,426.471832 906.564392,426.258484 905.864685,425.731689 
	C899.159546,432.419830 892.397217,439.013947 885.878662,445.840851 
	C884.970642,446.791840 885.038513,448.888489 885.034058,450.455902 
	C884.981018,469.102783 885.000000,487.749847 885.000000,506.698120 
	C869.410217,506.698120 854.004822,506.698120 838.298889,506.698120 
	C838.298889,439.404175 838.298889,372.002899 838.298889,304.300629 
	C853.592346,304.300629 868.997742,304.300629 884.760681,304.300629 
	C884.760681,332.935333 884.760681,361.677307 884.760681,391.259644 
	C898.577942,375.201935 911.897034,359.860748 925.057251,344.384460 
	C935.209534,332.445404 945.174377,320.346741 955.195557,308.296539 
	C957.752625,305.221771 960.600037,303.758423 964.947327,303.861298 
	C980.098145,304.219910 995.262695,304.000000 1011.259949,304.000000 
	C1008.739868,307.338715 1006.678345,310.346161 1004.339600,313.119843 
	C994.850220,324.373962 985.210266,335.501434 975.749084,346.779053 
	C964.316895,360.406250 953.005066,374.134521 941.652588,387.828491 
	C939.797546,390.066132 936.629639,392.313751 936.563660,394.627838 
	C936.497559,396.950745 939.529724,399.377411 941.239258,401.733063 
	C958.908508,426.078796 976.622192,450.392426 994.241821,474.774017 
	C1001.858765,485.314148 1009.285400,495.991791 1017.076599,507.000000 
	C1006.786926,507.000000 997.143494,507.000000 987.000000,507.000000 
z"/>
<path fill="#FFFFFF" opacity="1.000000" stroke="none" 
	d="
M1032.000000,403.000000 
	C1032.000000,369.861359 1032.000000,337.222717 1032.000000,304.292236 
	C1078.605591,304.292236 1125.003784,304.292236 1171.701172,304.292236 
	C1171.701172,317.594421 1171.701172,330.998749 1171.701172,344.798889 
	C1141.070801,344.798889 1110.334961,344.798889 1079.300293,344.798889 
	C1079.300293,357.924316 1079.300293,370.662201 1079.300293,383.796997 
	C1105.593262,383.796997 1131.996704,383.796997 1158.699219,383.796997 
	C1158.699219,396.590027 1158.699219,408.994659 1158.699219,421.796295 
	C1132.407471,421.796295 1106.004028,421.796295 1079.301147,421.796295 
	C1079.301147,436.256317 1079.301147,450.327209 1079.301147,465.000000 
	C1080.944824,465.000000 1082.706177,465.000000 1084.467407,465.000000 
	C1112.794434,465.000000 1141.122070,465.089264 1169.447876,464.906006 
	C1173.812744,464.877747 1175.230469,466.042206 1175.100464,470.501251 
	C1174.789673,481.156494 1174.928467,491.827698 1175.045776,502.490723 
	C1175.078857,505.502380 1174.485962,507.066010 1170.958374,507.058105 
	C1124.969238,506.954895 1078.979736,506.969147 1032.990356,506.945923 
	C1032.847412,506.945831 1032.704468,506.829803 1032.000000,506.524841 
	C1032.000000,472.347321 1032.000000,437.923645 1032.000000,403.000000 
z"/>
<path fill="#FFFFFF" opacity="1.000000" stroke="none" 
	d="
M1389.000977,359.333740 
	C1390.583496,349.264709 1393.407227,340.125610 1398.997925,332.016418 
	C1409.414917,316.906769 1424.281250,308.393829 1441.847900,305.233734 
	C1452.608521,303.297943 1463.932129,302.251160 1474.732666,303.382935 
	C1486.424072,304.608063 1498.013916,308.194489 1509.250000,311.943695 
	C1518.583496,315.058044 1527.339844,319.902008 1536.937988,324.244934 
	C1529.829346,337.713409 1523.166138,350.337769 1516.390015,363.176208 
	C1503.675415,354.685822 1489.869141,348.819641 1475.012573,345.498230 
	C1466.483032,343.591370 1458.052246,343.538116 1449.430176,345.798584 
	C1441.499023,347.877960 1437.366089,353.844604 1436.927002,360.516113 
	C1436.491577,367.132965 1441.967773,373.446045 1449.120483,375.872589 
	C1464.894165,381.223755 1480.875732,385.962128 1496.766724,390.968109 
	C1508.551880,394.680695 1519.663086,399.897369 1528.666382,408.419189 
	C1535.946655,415.310028 1540.347046,424.214325 1541.934692,434.202606 
	C1543.748779,445.616211 1543.223999,457.012238 1539.464233,467.979218 
	C1533.893311,484.228668 1522.118530,494.649689 1506.551880,500.951599 
	C1490.997681,507.248444 1474.581543,509.113831 1458.044678,507.849670 
	C1438.361206,506.344940 1419.044312,502.515259 1401.000977,493.970612 
	C1393.918457,490.616547 1386.993774,486.929199 1379.848145,483.318390 
	C1386.913330,469.181305 1393.646606,455.708313 1400.378418,442.238403 
	C1416.709473,453.498108 1434.696655,461.058167 1454.130981,464.865479 
	C1463.282104,466.658234 1472.698486,466.828796 1481.767822,463.922150 
	C1486.504028,462.404205 1491.059692,459.786835 1491.866699,454.399567 
	C1492.826660,447.989197 1491.897095,441.630096 1485.017944,438.595978 
	C1477.139893,435.121185 1469.154785,431.796295 1460.992432,429.077667 
	C1443.075684,423.110107 1424.482666,418.990234 1408.485229,408.136597 
	C1395.742920,399.491333 1389.508179,387.484711 1389.020386,372.299408 
	C1388.886719,368.137390 1389.000000,363.967438 1389.000977,359.333740 
z"/>
<path fill="#FFFFFF" opacity="1.000000" stroke="none" 
	d="
M568.206055,462.531403 
	C566.574463,461.759705 565.140503,461.054504 563.703857,461.049103 
	C544.216003,460.976013 524.727234,461.073608 505.240204,460.930695 
	C501.817230,460.905609 500.775055,462.023102 499.847473,465.373718 
	C496.213928,478.499023 492.073425,491.487457 487.874847,504.446869 
	C487.503265,505.593933 485.355194,506.874390 484.017670,506.890564 
	C469.540283,507.065674 455.060028,506.999939 439.303986,506.999939 
	C462.747162,439.071594 485.996216,371.705719 509.362366,304.000580 
	C525.347717,304.000580 541.487183,303.937439 557.623413,304.134674 
	C558.769104,304.148682 560.487244,305.867706 560.935364,307.145874 
	C567.719788,326.497742 574.354126,345.902374 580.987976,365.306885 
	C591.349976,395.616516 601.656860,425.945038 612.042786,456.246399 
	C617.339783,471.700562 622.765137,487.110626 628.108887,502.548798 
	C628.558899,503.848907 628.829224,505.211273 629.303772,506.999268 
	C613.909668,506.999268 599.104980,507.118744 584.309570,506.804779 
	C582.910095,506.775116 580.862000,504.246765 580.312256,502.501373 
	C576.173462,489.361847 572.334839,476.127747 568.206055,462.531403 
M549.966553,400.755432 
	C544.892639,384.596100 539.818726,368.436768 534.488220,351.460236 
	C526.487976,377.734192 518.737244,403.188660 510.987946,428.638306 
	C526.875061,428.638306 542.371948,428.638306 557.918762,428.638306 
	C555.210388,419.389282 552.604065,410.488831 549.966553,400.755432 
z"/>
<path fill="#FFFFFF" opacity="1.000000" stroke="none" 
	d="
M787.297729,444.731628 
	C795.099976,449.313141 802.520386,453.815033 810.140564,457.948425 
	C814.162354,460.130005 814.672424,462.246521 812.374146,466.308838 
	C805.608154,478.267822 795.868225,486.923523 784.027405,493.491394 
	C766.077026,503.448181 746.887512,508.547638 726.319153,507.977905 
	C707.546204,507.457916 690.419434,501.453766 675.309692,490.593018 
	C651.960571,473.809937 637.663513,451.041077 631.905334,422.724213 
	C628.256470,404.780609 629.671143,387.292114 635.457214,370.218811 
	C643.134338,347.565186 657.671082,329.970306 677.713196,317.098999 
	C688.917786,309.903259 701.245972,305.438660 714.626770,303.941620 
	C732.199768,301.975525 749.590210,302.037231 766.469238,308.033203 
	C786.301086,315.078156 801.743103,327.502899 812.469849,346.692413 
	C800.415710,355.111053 788.420166,363.488800 776.385376,371.893951 
	C769.440430,354.983154 756.098511,347.571228 738.913086,344.898193 
	C720.932190,342.101471 705.777527,346.933838 693.443481,360.136627 
	C685.188110,368.973480 680.796509,379.742767 678.964050,391.671204 
	C677.149597,403.482574 677.292419,415.140930 681.013367,426.577881 
	C687.468018,446.417084 699.565979,460.687012 720.840332,464.941040 
	C739.096069,468.591461 755.396057,464.222778 768.610229,450.726379 
	C771.806091,447.462250 773.957764,443.175751 776.933105,438.861359 
	C780.103577,440.637085 783.551208,442.568024 787.297729,444.731628 
z"/>
<path fill="#FFFFFF" opacity="1.000000" stroke="none" 
	d="
M136.000000,486.999695 
	C136.000000,439.527222 136.000000,392.554657 136.000000,345.184143 
	C115.389740,345.184143 94.983246,345.184143 74.289688,345.184143 
	C74.289688,331.386139 74.289688,317.981232 74.289688,304.287201 
	C130.617889,304.287201 187.017899,304.287201 243.709167,304.287201 
	C243.709167,317.611542 243.709167,331.016479 243.709167,344.821594 
	C223.384033,344.821594 202.977432,344.821594 182.180176,344.821594 
	C182.180176,398.951630 182.180176,452.686218 182.180176,506.709900 
	C166.720016,506.709900 151.648682,506.709900 136.000000,506.709900 
	C136.000000,500.363190 136.000000,493.931396 136.000000,486.999695 
z"/>
<path fill="#FFFFFF" opacity="1.000000" stroke="none" 
	d="
M503.941742,164.957199 
	C503.941742,149.821426 503.941742,134.685669 503.941742,119.157104 
	C483.360840,119.157104 462.957397,119.157104 442.278412,119.157104 
	C442.278412,105.365013 442.278412,91.962288 442.278412,78.278854 
	C498.626404,78.278854 555.018188,78.278854 611.705200,78.278854 
	C611.705200,91.601387 611.705200,105.004532 611.705200,118.803314 
	C591.400940,118.803314 570.997437,118.803314 550.000000,118.803314 
	C550.000000,129.945099 549.932800,140.704620 550.033447,151.462555 
	C550.073120,155.704971 550.487061,159.943893 550.617188,164.610535 
	C550.312195,165.066376 550.120667,165.096039 549.467285,165.076813 
	C533.984253,165.004333 518.963013,164.980774 503.941742,164.957199 
z"/>
<path fill="#FFFFFF" opacity="1.000000" stroke="none" 
	d="
M682.153076,193.010254 
	C682.153076,208.137909 682.153076,223.265564 682.153076,238.755096 
	C713.896179,238.755096 745.610352,238.755096 777.661804,238.755096 
	C777.661804,252.504150 777.661804,265.901031 777.661804,279.649597 
	C730.424866,279.649597 682.940735,279.649597 634.989075,279.649597 
	C634.989075,251.085297 634.989075,222.506042 635.028809,193.582825 
	C635.068481,193.238876 635.351685,193.073929 635.793579,193.047699 
	C651.374939,193.038330 666.514343,193.055161 681.790771,193.155334 
	C681.927856,193.238678 682.153076,193.010254 682.153076,193.010254 
z"/>
<path fill="#FFFFFF" opacity="1.000000" stroke="none" 
	d="
M634.914246,164.966843 
	C634.914246,136.162643 634.914246,107.358444 634.914246,78.277489 
	C681.638916,78.277489 728.040527,78.277489 774.721375,78.277489 
	C774.721375,91.636772 774.721375,105.041641 774.721375,118.845856 
	C744.024597,118.845856 713.286316,118.845856 682.005310,118.845856 
	C682.005310,134.169144 682.005310,149.101639 681.567627,164.516174 
	C665.724731,164.987762 650.319519,164.977295 634.914246,164.966843 
z"/>
<path fill="#FFFFFF" opacity="1.000000" stroke="none" 
	d="
M309.967957,164.940521 
	C312.804016,156.628265 315.503815,148.266449 318.505219,140.014359 
	C324.241791,124.242363 330.146362,108.531441 335.993835,92.799858 
	C336.494537,91.452721 337.150421,90.162109 337.628265,88.807831 
	C338.857086,85.325203 339.052643,80.135513 341.460968,78.744797 
	C344.608246,76.927353 349.486816,78.038528 353.621277,78.014694 
	C362.104980,77.965775 370.603668,78.291267 379.066681,77.869881 
	C382.954315,77.676308 384.669556,79.374298 385.778076,82.443756 
	C390.448425,95.376007 395.063232,108.328331 399.691223,121.275864 
	C404.799255,135.566452 409.899475,149.859848 414.554138,164.562836 
	C400.391388,164.963242 386.677582,164.952805 372.976074,164.547546 
	C369.665314,153.548615 366.342224,142.944489 362.607239,131.026093 
	C358.774658,143.361542 355.419312,154.160934 351.591675,164.981522 
	C337.402252,164.981964 323.685120,164.961243 309.967957,164.940521 
z"/>
<path fill="#FFFFFF" opacity="1.000000" stroke="none" 
	d="
M120.084000,193.018295 
	C120.084000,221.825928 120.084000,250.633560 120.084000,279.720215 
	C104.364258,279.720215 88.958603,279.720215 72.995110,279.720215 
	C72.995110,251.162201 72.995110,222.563034 73.435226,193.486115 
	C89.147118,193.045395 104.418892,193.082443 119.808922,193.171631 
	C119.927177,193.223785 120.084000,193.018295 120.084000,193.018295 
z"/>
<path fill="#FFFFFF" opacity="1.000000" stroke="none" 
	d="
M72.958008,164.947144 
	C72.958008,136.148361 72.958008,107.349594 72.958008,78.275780 
	C88.640594,78.275780 104.042946,78.275780 120.001923,78.275780 
	C120.001923,106.827286 120.001923,135.417709 119.545456,164.491531 
	C103.711998,164.965668 88.335007,164.956406 72.958008,164.947144 
z"/>
<path fill="#FFFFFF" opacity="1.000000" stroke="none" 
	d="
M200.918243,164.967758 
	C200.918243,136.172714 200.918243,107.377670 200.918243,78.291626 
	C216.272110,78.291626 231.338913,78.291626 247.000000,78.291626 
	C247.000000,79.786873 247.000000,81.381584 247.000000,82.976295 
	C247.000000,108.295250 246.986069,133.614227 247.030426,158.933105 
	C247.033493,160.677292 247.471695,162.420715 247.404388,164.570709 
	C231.706924,164.973862 216.312576,164.970810 200.918243,164.967758 
z"/>
<path fill="#FFFFFF" opacity="1.000000" stroke="none" 
	d="
M532.111572,192.904449 
	C538.116333,192.934937 544.121094,192.965424 550.598755,192.985382 
	C550.714417,194.860336 550.051331,196.744965 550.046204,198.631378 
	C549.977173,223.948914 550.000000,249.266693 550.000000,274.584412 
	C550.000000,276.222992 550.000000,277.861572 550.000000,279.744202 
	C534.655212,279.744202 519.589600,279.744202 503.997131,279.744202 
	C503.997131,251.146408 503.997131,222.560562 504.448425,193.496887 
	C513.970337,192.980881 523.040955,192.942673 532.111572,192.904449 
z"/>
<path fill="#FFFFFF" opacity="1.000000" stroke="none" 
	d="
M247.096298,193.015045 
	C247.096298,221.778030 247.096298,250.541000 247.096298,279.651917 
	C231.740906,279.651917 216.574463,279.651917 200.993454,279.651917 
	C200.993454,251.057602 200.993454,222.501419 201.026550,193.577362 
	C201.059647,193.209488 201.286423,193.106262 201.732010,193.067749 
	C217.021194,193.055725 231.864792,193.082230 246.823807,193.161652 
	C246.939224,193.214569 247.096298,193.015045 247.096298,193.015045 
z"/>
<path fill="#FFFFFF" opacity="1.000000" stroke="none" 
	d="
M426.116119,193.002686 
	C430.397278,204.866943 434.674011,216.732788 438.960602,228.595078 
	C445.046692,245.437241 451.140045,262.276794 457.411255,279.617920 
	C441.222900,279.617920 425.536530,279.617920 409.428864,279.617920 
	C400.693298,251.657639 391.833008,223.292419 382.953888,194.933105 
	C382.815948,194.492661 382.445068,194.125168 382.119293,193.469055 
	C382.055695,193.214493 382.295441,193.109528 382.741119,193.070312 
	C397.361694,193.055573 411.536560,193.080032 425.832764,193.159119 
	C425.954071,193.213730 426.116119,193.002686 426.116119,193.002686 
z"/>
<path fill="#FFFFFF" opacity="1.000000" stroke="none" 
	d="
M342.996979,193.067719 
	C333.899994,221.912918 324.802979,250.758133 315.637390,279.820923 
	C300.052917,279.820923 284.275726,279.820923 267.730133,279.820923 
	C278.211151,250.981369 288.599426,222.396988 299.197693,193.374237 
	C299.407654,192.935883 299.873230,192.774261 300.346863,192.852386 
	C314.879333,192.976257 328.938171,193.021988 342.996979,193.067719 
z"/>
<path fill="#FFFFFF" opacity="1.000000" stroke="none" 
	d="
M889.723145,113.222336 
	C884.611023,106.705322 879.760864,100.441536 874.205322,93.266808 
	C874.205322,110.401329 874.205322,126.412773 874.205322,142.710175 
	C871.389282,142.710175 868.981812,142.710175 866.283264,142.710175 
	C866.283264,121.401337 866.283264,99.985603 866.283264,78.347519 
	C870.860535,77.165268 873.599609,78.746704 876.611206,82.834251 
	C886.249023,95.915245 896.614197,108.460487 906.707581,121.205444 
	C908.486694,123.451965 910.308899,125.664322 912.924194,128.897476 
	C912.924194,111.191376 912.924194,94.819969 912.924194,78.227036 
	C915.728760,78.227036 918.133362,78.227036 920.771729,78.227036 
	C920.771729,99.727272 920.771729,121.143921 920.771729,142.941132 
	C916.773499,142.801804 913.404968,143.805969 910.259033,139.127014 
	C904.196106,130.109222 896.817871,121.975739 889.723145,113.222336 
z"/>
<path fill="#FFFFFF" opacity="1.000000" stroke="none" 
	d="
M1449.706177,119.204056 
	C1452.383545,122.248909 1454.795654,125.044289 1457.950684,128.700653 
	C1457.950684,111.173973 1457.950684,94.798531 1457.950684,78.214386 
	C1460.754028,78.214386 1463.157959,78.214386 1465.782959,78.214386 
	C1465.782959,99.753822 1465.782959,121.171272 1465.782959,142.811325 
	C1461.171997,143.273682 1457.854736,142.992783 1454.508179,138.426086 
	C1443.656616,123.618599 1431.921265,109.458611 1420.511230,95.061180 
	C1420.257080,94.740379 1419.824829,94.560867 1418.959839,93.952934 
	C1418.959839,110.550659 1418.959839,126.603729 1418.959839,142.825394 
	C1416.293823,142.825394 1414.002686,142.825394 1411.353760,142.825394 
	C1411.353760,121.394974 1411.353760,99.854698 1411.353760,78.260490 
	C1415.303101,77.537384 1417.974854,78.140480 1420.786865,81.975021 
	C1429.534546,93.903595 1439.086182,105.242195 1448.302124,116.828735 
	C1448.794434,117.447670 1449.066406,118.241936 1449.706177,119.204056 
z"/>
<path fill="#FFFFFF" opacity="1.000000" stroke="none" 
	d="
M1391.812500,102.519531 
	C1393.227295,111.546928 1392.720581,119.881813 1388.046021,127.583778 
	C1379.664062,141.394257 1370.893555,144.768539 1356.036377,142.744492 
	C1344.869629,141.223206 1337.753296,133.423843 1333.924927,122.713081 
	C1329.100098,109.214821 1331.480347,96.818123 1341.069092,86.709091 
	C1353.528564,73.573303 1375.081299,74.682884 1385.313965,89.892998 
	C1387.859985,93.677368 1389.560303,98.030548 1391.812500,102.519531 
M1380.627808,96.102234 
	C1380.093506,95.485580 1379.500244,94.910408 1379.033691,94.246162 
	C1370.381714,81.931145 1354.905273,82.440155 1346.573975,92.190941 
	C1339.136108,100.896019 1337.552612,111.535248 1342.159912,122.223801 
	C1348.615601,137.200684 1365.868408,140.538254 1376.863037,129.820435 
	C1384.175415,122.692116 1386.506104,107.169647 1380.627808,96.102234 
z"/>
<path fill="#FFFFFF" opacity="1.000000" stroke="none" 
	d="
M1058.029663,96.171394 
	C1064.125732,110.901772 1061.827881,124.485992 1051.092529,134.990601 
	C1036.049683,149.710007 1010.783813,145.137787 1002.879089,123.375229 
	C996.867981,106.826187 1001.539673,91.454933 1014.716064,82.759834 
	C1028.540405,73.637070 1045.191406,77.101051 1054.970703,90.856049 
	C1056.082153,92.419304 1056.981567,94.133339 1058.029663,96.171394 
M1044.991577,91.487694 
	C1037.993286,83.672600 1026.968262,82.969269 1019.416443,88.388466 
	C1006.493164,97.662109 1004.151245,116.386421 1015.034363,128.574631 
	C1023.416809,137.962311 1033.496704,137.503235 1040.106323,133.832199 
	C1054.588867,125.788567 1057.439819,103.466339 1044.991577,91.487694 
z"/>
<path fill="#FFFFFF" opacity="1.000000" stroke="none" 
	d="
M1108.299072,122.259300 
	C1113.534058,109.647423 1118.508301,97.337143 1123.489258,85.029655 
	C1123.969727,83.842522 1124.635010,82.711342 1124.966675,81.487038 
	C1125.559692,79.299240 1126.318237,77.189507 1129.099365,78.072876 
	C1131.000244,78.676704 1133.692627,79.546082 1134.308228,81.017555 
	C1141.405273,97.979874 1148.146118,115.090775 1155.048828,132.134995 
	C1156.490479,135.694672 1158.206299,139.143356 1159.958008,143.000000 
	C1158.118286,143.000000 1156.643311,142.832626 1155.220337,143.033585 
	C1151.892212,143.503601 1150.186523,142.434052 1149.313721,138.913773 
	C1148.244751,134.602173 1146.476685,130.430542 1144.643799,126.363800 
	C1144.149902,125.267960 1142.343994,124.139534 1141.109253,124.103996 
	C1133.793335,123.893410 1126.460083,123.815308 1119.152710,124.142975 
	C1117.528687,124.215805 1115.206543,125.742577 1114.546021,127.205154 
	C1112.259521,132.268204 1110.563965,137.598190 1108.654053,142.797653 
	C1105.739746,142.797653 1102.971924,142.797653 1099.850464,142.797653 
	C1102.659912,135.855713 1105.350098,129.208679 1108.299072,122.259300 
M1128.029785,91.737190 
	C1124.782104,100.433357 1121.534424,109.129517 1118.298340,117.794647 
	C1125.898315,117.794647 1133.345215,117.794647 1141.318726,117.794647 
	C1137.409424,107.672363 1133.638550,97.908775 1129.622314,87.509903 
	C1129.033081,89.253006 1128.727539,90.157013 1128.029785,91.737190 
z"/>
<path fill="#FFFFFF" opacity="1.000000" stroke="none" 
	d="
M1222.230713,89.648979 
	C1222.620605,90.802208 1223.226807,92.194916 1222.931885,92.422943 
	C1221.286499,93.695709 1219.422852,94.686630 1217.374756,95.931282 
	C1213.583252,89.414551 1207.930420,85.503113 1200.285400,85.029091 
	C1190.713257,84.435577 1181.985962,90.631996 1178.501831,100.877769 
	C1173.453003,115.724579 1181.481567,131.782455 1194.902344,135.472031 
	C1201.571777,137.305542 1212.036743,133.989273 1215.915771,128.428574 
	C1216.739380,127.247757 1217.557861,126.063187 1218.557495,124.622719 
	C1220.820068,126.014893 1222.833130,127.253563 1224.841797,128.489563 
	C1218.098389,144.752731 1191.713013,147.722748 1179.848877,135.632294 
	C1166.932373,122.469299 1164.877075,102.772888 1176.564697,88.066032 
	C1187.342651,74.503899 1212.536255,73.386726 1222.230713,89.648979 
z"/>
<path fill="#FFFFFF" opacity="1.000000" stroke="none" 
	d="
M968.000000,117.000000 
	C968.000000,125.809349 968.000000,134.118698 968.000000,142.713043 
	C965.050232,142.713043 962.311279,142.713043 959.174072,142.713043 
	C959.174072,124.061905 959.174072,105.317741 959.174072,86.173172 
	C951.719482,86.173172 944.642334,86.173172 937.284912,86.173172 
	C937.284912,83.380402 937.284912,80.973465 937.284912,78.279327 
	C954.602661,78.279327 972.013916,78.279327 989.713318,78.279327 
	C989.713318,80.616295 989.713318,83.023338 989.713318,85.829483 
	C982.739624,85.829483 975.652832,85.829483 968.000000,85.829483 
	C968.000000,96.306686 968.000000,106.403343 968.000000,117.000000 
z"/>
<path fill="#FFFFFF" opacity="1.000000" stroke="none" 
	d="
M1267.000000,94.052277 
	C1267.000000,110.515472 1267.000000,126.486908 1267.000000,142.728577 
	C1264.020142,142.728577 1261.281738,142.728577 1258.143311,142.728577 
	C1258.143311,124.029610 1258.143311,105.284882 1258.143311,86.140846 
	C1250.685425,86.140846 1243.606079,86.140846 1236.266846,86.140846 
	C1236.266846,83.346169 1236.266846,80.940239 1236.266846,78.263306 
	C1253.640869,78.263306 1271.052734,78.263306 1288.732910,78.263306 
	C1288.732910,80.653503 1288.732910,83.059433 1288.732910,85.866158 
	C1281.696289,85.866158 1274.611694,85.866158 1267.000000,85.866158 
	C1267.000000,88.685814 1267.000000,91.123161 1267.000000,94.052277 
z"/>
<path fill="#FFFFFF" opacity="1.000000" stroke="none" 
	d="
M835.000000,113.000000 
	C835.000000,101.190628 835.000000,89.881256 835.000000,78.286667 
	C837.950439,78.286667 840.689575,78.286667 843.718018,78.286667 
	C843.718018,99.608360 843.718018,121.016891 843.718018,142.713303 
	C841.049622,142.713303 838.310486,142.713303 835.000000,142.713303 
	C835.000000,133.038635 835.000000,123.269318 835.000000,113.000000 
z"/>
<path fill="#DF9C9C" opacity="1.000000" stroke="none" 
	d="
M1463.807861,165.505676 
	C1460.863892,165.911057 1457.702271,165.991760 1454.540527,165.991730 
	C1270.989990,165.990158 1087.439575,165.981903 903.432678,165.738022 
	C902.976257,165.501755 902.976318,165.163132 902.976318,165.163147 
	C904.471436,165.108749 905.966614,165.006775 907.461731,165.006714 
	C1091.675537,164.999069 1275.889282,164.998703 1460.103027,165.004471 
	C1461.265381,165.004501 1462.427612,165.095062 1463.807861,165.505676 
z"/>
<path fill="#E17B7B" opacity="1.000000" stroke="none" 
	d="
M913.965454,192.126648 
	C915.961426,192.082977 917.957458,192.001099 919.953430,192.001083 
	C1100.993042,191.999359 1282.032715,192.003937 1463.809082,192.006561 
	C1464.724121,192.035645 1464.902588,192.066223 1465.080933,192.096832 
	C1463.542847,192.394073 1462.004883,192.951324 1460.466797,192.951660 
	C1278.618652,192.991760 1096.770386,192.990585 914.458374,192.739914 
	C913.994568,192.488220 913.965454,192.126648 913.965454,192.126648 
z"/>
<path fill="#FFFFFF" opacity="1.000000" stroke="none" 
	d="
M1305.001709,140.775833 
	C1305.000122,119.721146 1305.000122,99.144829 1305.000122,78.284683 
	C1307.614624,78.284683 1310.016968,78.284683 1312.713379,78.284683 
	C1312.713379,99.661995 1312.713379,121.147179 1312.713379,143.824432 
	C1309.868164,142.875946 1307.435669,142.065079 1305.001709,140.775833 
z"/>
<path fill="#DF9D9D" opacity="1.000000" stroke="none" 
	d="
M200.454437,164.978363 
	C216.312576,164.970810 231.706924,164.973862 247.571564,164.962097 
	C268.372498,164.961731 288.703125,164.976196 309.500854,164.965576 
	C323.685120,164.961243 337.402252,164.981964 352.056580,164.997452 
	C359.650391,164.975586 366.307068,164.958969 372.963745,164.942352 
	C386.677582,164.952805 400.391388,164.963242 414.575867,164.961365 
	C444.367859,164.960449 473.689270,164.971848 503.476196,164.970215 
	C518.963013,164.980774 533.984253,165.004333 549.495361,165.256516 
	C549.985229,165.485123 550.032410,165.846771 550.032410,165.846771 
	C532.047668,165.898102 514.062988,165.991974 496.078278,165.994034 
	C351.346649,166.010712 206.615036,166.010071 61.410751,166.014847 
	C64.640739,165.674927 68.343391,165.334869 72.502029,164.970978 
	C88.335007,164.956406 103.711998,164.965668 119.558182,164.956116 
	C146.681793,164.954514 173.336212,164.971741 200.454437,164.978363 
z"/>
<path fill="#EAC4C4" opacity="1.000000" stroke="none" 
	d="
M550.494934,165.913055 
	C550.032410,165.846771 549.985229,165.485123 549.957153,165.305420 
	C550.120667,165.096039 550.312195,165.066376 550.792114,165.000931 
	C578.716125,164.975311 606.351807,164.985458 634.450806,164.981232 
	C650.319519,164.977295 665.724731,164.987762 681.602722,164.981445 
	C755.400879,164.982117 828.726379,164.999542 902.514038,165.090057 
	C902.976318,165.163132 902.976257,165.501755 902.969360,165.670929 
	C901.634338,165.893005 900.306152,165.992188 898.977966,165.992188 
	C782.971130,165.992813 666.964294,165.985809 550.494934,165.913055 
z"/>
<path fill="#E79E9E" opacity="1.000000" stroke="none" 
	d="
M913.501770,192.073669 
	C913.965454,192.126648 913.994568,192.488220 913.998230,192.669525 
	C911.505615,192.900558 909.009399,192.993362 906.513123,192.993713 
	C832.031982,193.004211 757.550903,193.005539 682.611450,193.009277 
	C682.153076,193.010254 681.927856,193.238678 681.893860,192.931152 
	C681.859863,192.623627 681.944397,192.137726 681.944397,192.137726 
	C698.911987,192.090561 715.879639,192.005661 732.847229,192.003036 
	C792.910828,191.993729 852.974487,192.012527 913.501770,192.073669 
z"/>
<path fill="#E79E9E" opacity="1.000000" stroke="none" 
	d="
M551.432556,193.031372 
	C552.460876,192.704620 553.959351,192.045334 555.459229,192.042175 
	C581.680359,191.986847 607.901672,192.011856 634.637390,192.322983 
	C635.151794,192.626556 635.351685,193.073929 635.351685,193.073929 
	C635.351685,193.073929 635.068481,193.238876 634.956543,193.119064 
	C607.197571,193.000916 579.550415,193.002563 551.432556,193.031372 
z"/>
<path fill="#E38383" opacity="1.000000" stroke="none" 
	d="
M119.931526,192.173294 
	C146.662125,192.126373 173.392731,192.079453 200.623535,192.336639 
	C201.123734,192.640762 201.286423,193.106262 201.286423,193.106262 
	C201.286423,193.106262 201.059647,193.209488 200.983368,193.111298 
	C174.275131,193.010712 147.643143,193.008331 120.547585,193.012115 
	C120.084000,193.018295 119.927177,193.223785 119.891151,192.940628 
	C119.855125,192.657471 119.931526,192.173294 119.931526,192.173294 
z"/>
<path fill="#E17B7B" opacity="1.000000" stroke="none" 
	d="
M425.934174,192.137573 
	C451.334686,192.105408 476.735229,192.073257 502.597229,192.269653 
	C503.058746,192.498184 503.052246,192.827209 503.052246,192.827209 
	C477.714355,192.887131 452.376434,192.947037 426.577332,193.004822 
	C426.116119,193.002686 425.954071,193.213730 425.918335,192.924286 
	C425.882629,192.634857 425.934174,192.137573 425.934174,192.137573 
z"/>
<path fill="#E38383" opacity="1.000000" stroke="none" 
	d="
M299.873230,192.774261 
	C299.873230,192.774261 299.407654,192.935883 299.166199,192.984772 
	C281.957062,193.025558 264.989441,193.017441 247.559052,193.012177 
	C247.096298,193.015045 246.939224,193.214569 246.908020,192.928345 
	C246.876831,192.642136 246.940491,192.150284 246.940491,192.150284 
	C264.328735,192.092194 281.717010,192.034088 299.532349,192.208405 
	C299.959473,192.440842 299.873230,192.774261 299.873230,192.774261 
z"/>
<path fill="#E6C6C6" opacity="1.000000" stroke="none" 
	d="
M1465.454346,191.862610 
	C1464.902588,192.066223 1464.724121,192.035645 1464.274292,192.000183 
	C1464.202759,183.629211 1464.402832,175.263107 1464.795288,166.530548 
	C1465.324585,167.588608 1465.941528,169.011261 1465.951050,170.437958 
	C1465.998047,177.500854 1465.884521,184.564804 1465.454346,191.862610 
z"/>
<path fill="#E1B7B7" opacity="1.000000" stroke="none" 
	d="
M119.471733,192.106476 
	C119.931526,192.173294 119.855125,192.657471 119.772896,192.888474 
	C104.418892,193.082443 89.147118,193.045395 73.402946,193.020493 
	C72.579529,193.050385 72.306625,192.912994 72.056999,192.389038 
	C87.672073,192.118301 103.342010,192.078979 119.471733,192.106476 
z"/>
<path fill="#E1B7B7" opacity="1.000000" stroke="none" 
	d="
M300.346863,192.852386 
	C299.873230,192.774261 299.959473,192.440842 299.999573,192.273376 
	C314.353516,192.102966 328.667419,192.100006 343.412964,192.311661 
	C343.844666,192.526276 343.837189,192.793488 343.837189,192.793488 
	C343.837189,192.793488 343.430176,192.969421 343.213562,193.018570 
	C328.938171,193.021988 314.879333,192.976257 300.346863,192.852386 
z"/>
<path fill="#E27E7E" opacity="1.000000" stroke="none" 
	d="
M344.314026,192.880066 
	C343.837189,192.793488 343.844666,192.526276 343.868164,192.394745 
	C356.305298,192.185028 368.718872,192.106842 381.632568,192.336426 
	C382.132690,192.644211 382.295441,193.109528 382.295441,193.109528 
	C382.295441,193.109528 382.055695,193.214493 381.977539,193.109741 
	C369.529877,192.992203 357.160400,192.979416 344.314026,192.880066 
z"/>
<path fill="#E1B6B6" opacity="1.000000" stroke="none" 
	d="
M503.274475,192.900070 
	C503.052246,192.827209 503.058746,192.498184 503.066620,192.333832 
	C512.580322,192.181763 522.086121,192.194031 531.851746,192.555389 
	C523.040955,192.942673 513.970337,192.980881 504.429382,193.031311 
	C503.959045,193.043549 503.496674,192.972931 503.274475,192.900070 
z"/>
<path fill="#E7CECE" opacity="1.000000" stroke="none" 
	d="
M60.620758,166.125259 
	C61.024242,174.311417 61.027336,182.688293 61.101440,191.527847 
	C60.780502,191.631317 60.046406,191.271698 60.046818,190.912933 
	C60.056217,182.713898 60.145786,174.514938 60.620758,166.125259 
z"/>
<path fill="#F0DDDD" opacity="1.000000" stroke="none" 
	d="
M635.793579,193.047699 
	C635.351685,193.073929 635.151794,192.626556 635.106018,192.385864 
	C650.380371,192.104889 665.700562,192.064621 681.482544,192.081039 
	C681.944397,192.137726 681.859863,192.623627 681.756836,192.847809 
	C666.514343,193.055161 651.374939,193.038330 635.793579,193.047699 
z"/>
<path fill="#E1B7B7" opacity="1.000000" stroke="none" 
	d="
M246.479736,192.086044 
	C246.940491,192.150284 246.876831,192.642136 246.792603,192.875427 
	C231.864792,193.082230 217.021194,193.055725 201.732010,193.067749 
	C201.286423,193.106262 201.123734,192.640762 201.092651,192.396179 
	C216.047379,192.108322 231.033188,192.065063 246.479736,192.086044 
z"/>
<path fill="#E1B7B7" opacity="1.000000" stroke="none" 
	d="
M382.741119,193.070312 
	C382.295441,193.109528 382.132690,192.644211 382.101807,192.399689 
	C396.384399,192.113571 410.697906,192.071991 425.472778,192.083984 
	C425.934174,192.137573 425.882629,192.634857 425.797058,192.869675 
	C411.536560,193.080032 397.361694,193.055573 382.741119,193.070312 
z"/>
<path fill="#000000" opacity="1.000000" stroke="none" 
	d="
M1289.779053,345.000000 
	C1301.737183,345.152313 1308.331177,352.212372 1311.561035,362.543549 
	C1315.413818,374.866974 1313.508545,386.877228 1303.237793,396.047272 
	C1300.996826,398.048157 1297.593384,399.750305 1294.679688,399.825806 
	C1280.030396,400.205414 1265.365967,399.999969 1250.353516,399.999969 
	C1250.353516,381.850311 1250.353516,363.779266 1250.353516,345.000000 
	C1263.151489,345.000000 1276.229614,345.000000 1289.779053,345.000000 
z"/>
<path fill="#000000" opacity="1.000000" stroke="none" 
	d="
M369.798737,393.696381 
	C365.718628,398.604675 360.903900,400.269379 354.825470,400.109711 
	C341.392700,399.756866 327.944305,400.000000 314.252045,400.000000 
	C314.252045,381.666199 314.252045,363.619171 314.252045,345.000000 
	C327.120392,345.000000 340.039215,344.679565 352.925964,345.181580 
	C357.177063,345.347198 361.582458,347.149048 365.503387,349.054474 
	C374.294403,353.326660 378.918884,368.767822 376.560822,377.667358 
	C375.118042,383.112671 372.266327,388.184662 369.798737,393.696381 
z"/>
<path fill="#000000" opacity="1.000000" stroke="none" 
	d="
M549.982178,401.171936 
	C552.604065,410.488831 555.210388,419.389282 557.918762,428.638306 
	C542.371948,428.638306 526.875061,428.638306 510.987946,428.638306 
	C518.737244,403.188660 526.487976,377.734192 534.488220,351.460236 
	C539.818726,368.436768 544.892639,384.596100 549.982178,401.171936 
z"/>
<path fill="#000000" opacity="1.000000" stroke="none" 
	d="
M372.976074,164.547546 
	C366.307068,164.958969 359.650391,164.975586 352.528809,164.976273 
	C355.419312,154.160934 358.774658,143.361542 362.607239,131.026093 
	C366.342224,142.944489 369.665314,153.548615 372.976074,164.547546 
z"/>
<path fill="#000000" opacity="1.000000" stroke="none" 
	d="
M1380.804688,96.448837 
	C1386.506104,107.169647 1384.175415,122.692116 1376.863037,129.820435 
	C1365.868408,140.538254 1348.615601,137.200684 1342.159912,122.223801 
	C1337.552612,111.535248 1339.136108,100.896019 1346.573975,92.190941 
	C1354.905273,82.440155 1370.381714,81.931145 1379.033691,94.246162 
	C1379.500244,94.910408 1380.093506,95.485580 1380.804688,96.448837 
z"/>
<path fill="#000000" opacity="1.000000" stroke="none" 
	d="
M1045.250977,91.747185 
	C1057.439819,103.466339 1054.588867,125.788567 1040.106323,133.832199 
	C1033.496704,137.503235 1023.416809,137.962311 1015.034363,128.574631 
	C1004.151245,116.386421 1006.493164,97.662109 1019.416443,88.388466 
	C1026.968262,82.969269 1037.993286,83.672600 1045.250977,91.747185 
z"/>
<path fill="#000000" opacity="1.000000" stroke="none" 
	d="
M1128.225830,91.399109 
	C1128.727539,90.157013 1129.033081,89.253006 1129.622314,87.509903 
	C1133.638550,97.908775 1137.409424,107.672363 1141.318726,117.794647 
	C1133.345215,117.794647 1125.898315,117.794647 1118.298340,117.794647 
	C1121.534424,109.129517 1124.782104,100.433357 1128.225830,91.399109 
z"/>
</svg>