<svg version="1.1" id="Layer_1" xmlns="http://www.w3.org/2000/svg" xmlns:xlink="http://www.w3.org/1999/xlink" x="0px" y="0px"
	 width="100%" viewBox="0 0 1600 335" enable-background="new 0 0 1600 335" xml:space="preserve">
<path fill="#FEFFFF" opacity="1.000000" stroke="none" 
	d="
M1102.000000,336.000000 
	C734.714050,336.000000 367.928040,336.000000 1.071039,336.000000 
	C1.071039,224.395142 1.071039,112.790237 1.071039,1.092664 
	C534.333313,1.092664 1067.666626,1.092664 1600.967529,1.092664 
	C1600.967529,112.738701 1600.967529,224.369354 1600.967529,336.000000 
	C1434.790161,336.000000 1268.645020,336.000000 1102.000000,336.000000 
M598.000061,215.000000 
	C598.000061,215.000000 597.996155,214.997086 598.014465,215.857773 
	C598.501526,228.535645 598.988586,241.213501 599.468384,253.702408 
	C604.072205,253.702408 608.454224,253.702408 612.776611,253.702408 
	C612.776611,241.230133 612.776611,229.135559 612.820068,216.286743 
	C612.610474,215.846252 612.400879,215.405762 612.251953,214.305466 
	C611.839233,212.859772 611.426514,211.414078 610.987183,209.258850 
	C609.172058,204.711472 605.491943,202.380997 601.065186,200.981918 
	C592.671753,198.329147 585.622009,201.288162 578.641357,207.235657 
	C578.641357,198.077316 578.641357,189.834320 578.641357,181.496246 
	C573.816040,181.496246 569.436340,181.496246 564.992126,181.496246 
	C564.992126,205.761932 564.992126,229.667252 564.992126,253.782745 
	C569.607544,253.782745 573.990601,253.782745 579.017700,253.782745 
	C579.017700,243.387589 578.868591,233.272812 579.058533,223.164429 
	C579.259277,212.482040 587.466431,207.899368 596.949463,213.634430 
	C597.300049,214.092026 597.650635,214.549622 598.000061,215.000000 
M1347.282104,181.641525 
	C1347.282104,185.688889 1347.282104,189.736252 1347.282104,193.779663 
	C1351.986572,193.779663 1356.365234,193.779663 1361.569458,193.779663 
	C1360.995728,189.382156 1360.471191,185.360870 1359.046997,181.172501 
	C1355.386719,181.246170 1351.726562,181.319855 1347.282104,181.641525 
M692.576965,99.213737 
	C683.485718,99.213737 674.394470,99.213737 664.438171,99.213737 
	C665.009338,103.927948 665.539368,108.302811 666.984924,112.837440 
	C675.304626,112.768654 683.624268,112.699867 692.703796,112.358086 
	C692.732666,108.912933 692.761536,105.467789 692.918030,101.371147 
	C692.875916,100.932846 692.833801,100.494545 692.576965,99.213737 
M21.503883,314.786774 
	C23.432856,315.200989 25.361687,315.977112 27.290812,315.977844 
	C171.680695,316.033600 316.070618,316.028229 460.460510,316.025543 
	C462.125549,316.025513 463.817108,316.158386 465.440399,315.890411 
	C465.965546,315.803711 466.311371,314.630981 466.904572,313.036774 
	C466.913635,219.695541 466.924805,126.354317 466.923706,33.013092 
	C466.923676,29.357349 466.806824,25.701607 466.870911,21.184856 
	C464.939331,20.780428 463.007904,20.022659 461.076172,20.021921 
	C316.374725,19.966631 171.673233,19.971041 26.971741,19.972218 
	C25.640125,19.972229 24.158298,19.644005 23.031916,20.130123 
	C22.329933,20.433084 22.165026,21.980488 21.456886,23.861317 
	C21.431786,24.526608 21.384705,25.191900 21.384697,25.857191 
	C21.383551,119.600983 21.384295,213.344772 21.403522,307.088562 
	C21.403793,308.403625 21.638144,309.718628 21.466068,311.750671 
	C21.557755,312.508423 21.649441,313.266205 21.503883,314.786774 
M856.649475,222.025146 
	C856.712952,221.365341 856.776367,220.705551 857.095459,219.365417 
	C858.662903,217.328796 859.884766,214.117966 861.878967,213.531082 
	C864.860474,212.653595 868.385376,213.622330 872.120789,213.830307 
	C873.278198,210.647858 874.663147,206.839584 876.025513,203.093445 
	C867.993408,197.976334 861.400513,199.619110 857.011658,205.346893 
	C856.646057,205.824081 855.563477,205.751892 854.962769,205.076279 
	C854.905884,203.816696 854.848938,202.557098 854.793945,201.339691 
	C850.283508,201.339691 846.217651,201.339691 842.222168,201.339691 
	C842.222168,219.051636 842.222168,236.432358 842.222168,253.750107 
	C846.966858,253.750107 851.367004,253.750107 856.097717,253.750107 
	C856.097717,243.303162 856.097717,233.175766 856.321655,222.809448 
	C856.321655,222.809448 856.181030,222.513733 856.649475,222.025146 
M812.222473,95.392677 
	C814.488281,90.917374 817.944153,88.631332 823.145569,88.771317 
	C827.517334,88.888977 829.372620,91.676788 830.920532,95.947685 
	C830.920532,107.849388 830.920532,119.751099 830.920532,131.680984 
	C836.013306,131.680984 840.552673,131.680984 844.785583,131.680984 
	C844.785583,117.892593 844.785583,104.459999 844.780151,90.309082 
	C842.845398,82.566948 837.467651,78.950211 829.926392,78.016075 
	C821.877563,77.019066 815.659668,80.715477 810.055725,85.035049 
	C810.055725,83.114532 810.055725,81.194016 810.055725,79.255997 
	C805.392578,79.255997 801.332581,79.255997 797.203186,79.255997 
	C797.203186,96.886902 797.203186,114.237091 797.203186,131.809967 
	C801.816528,131.809967 806.203247,131.809967 811.880005,131.809967 
	C811.880005,119.730453 811.880005,107.865799 812.222473,95.392677 
M814.226013,201.405121 
	C814.134583,212.548187 814.043152,223.691269 813.541931,235.437424 
	C813.159546,236.692947 812.927185,238.020264 812.367188,239.190826 
	C810.529297,243.032242 805.337402,245.686172 801.148560,244.866608 
	C796.301392,243.918259 794.456116,240.404495 794.090454,235.913452 
	C793.902222,233.601166 794.033508,231.262253 794.032715,228.935379 
	C794.029663,219.699539 794.031494,210.463684 794.031494,201.352005 
	C788.954346,201.352005 784.561707,201.352005 779.998047,201.352005 
	C779.998047,214.305786 779.773987,226.928299 780.071655,239.538483 
	C780.294495,248.978104 786.412781,254.730408 795.780640,255.338074 
	C802.631775,255.782471 808.441040,253.647110 813.343384,248.855286 
	C813.616272,248.588577 814.526367,248.973831 814.994812,249.932312 
	C814.994812,251.194977 814.994812,252.457642 814.994812,253.808868 
	C819.520386,253.808868 823.576050,253.808868 828.027710,253.808868 
	C828.027710,252.274338 828.028381,250.981049 828.027588,249.687775 
	C828.017761,233.956085 828.016235,218.224350 827.952942,202.492874 
	C827.951233,202.057388 827.286194,201.624573 826.031067,201.038727 
	C822.379456,201.090134 818.727783,201.141556 814.226013,201.405121 
M1122.397949,201.033005 
	C1121.957642,201.082397 1121.517212,201.131775 1120.225586,201.395065 
	C1120.225586,218.899780 1120.225586,236.404495 1120.225586,253.750519 
	C1125.112915,253.750519 1129.523193,253.750519 1134.026611,253.750519 
	C1134.026611,244.660553 1134.026611,235.890335 1134.328979,226.380249 
	C1134.552246,224.394882 1134.752930,222.406677 1135.003418,220.424728 
	C1135.764771,214.395950 1140.089355,210.802963 1146.290649,211.024551 
	C1151.383911,211.206543 1153.718872,213.951340 1154.062988,220.436386 
	C1154.292114,224.756119 1154.389404,229.085800 1154.426392,233.412064 
	C1154.484497,240.196030 1154.441895,246.980865 1154.441895,253.803192 
	C1159.480225,253.803192 1163.907227,253.803192 1168.255127,253.803192 
	C1168.255127,241.089661 1168.741577,228.628189 1168.117188,216.222641 
	C1167.501709,203.995087 1158.269653,197.584290 1146.442139,200.813828 
	C1141.853760,202.066696 1137.688965,204.871170 1133.310303,206.978928 
	C1133.238770,206.422760 1133.079102,205.182220 1133.085083,203.256683 
	C1132.713623,202.569016 1132.342041,201.881348 1131.306152,201.041656 
	C1130.857666,201.091095 1130.409302,201.140518 1129.107056,201.036392 
	C1127.087646,201.086685 1125.068115,201.136978 1122.397949,201.033005 
M671.304504,220.612213 
	C669.893555,211.097580 664.782959,204.213409 655.656616,201.354385 
	C646.040771,198.341995 637.020996,199.879898 629.690186,207.626907 
	C622.394531,215.336838 620.369141,231.311737 625.451660,242.178879 
	C630.090881,252.098007 638.656921,256.315887 651.908325,255.206085 
	C661.664795,254.389008 668.118286,249.448547 671.127563,240.176392 
	C667.251526,239.435455 663.446777,238.522919 659.588440,238.101257 
	C658.628174,237.996323 657.165161,239.258759 656.496155,240.266434 
	C653.097168,245.385880 646.799683,246.991501 642.518066,242.691986 
	C639.855408,240.018295 638.851135,235.693100 638.019592,232.044159 
	C649.258972,232.044159 660.498352,232.044159 672.453308,232.044159 
	C671.967102,228.051712 671.559143,224.701324 671.304504,220.612213 
M1018.041870,232.078735 
	C1029.296509,232.078735 1040.551147,232.078735 1052.610107,232.078735 
	C1052.040161,227.581970 1051.554565,223.750549 1051.087524,219.410599 
	C1051.017334,219.256195 1050.947021,219.101807 1050.987305,218.293793 
	C1050.662354,217.521454 1050.337402,216.749100 1050.029419,215.245056 
	C1044.924805,198.548187 1020.153137,194.548019 1008.980652,208.492142 
	C1004.162292,214.505798 1002.836792,221.437866 1002.925171,228.961807 
	C1003.163330,249.240402 1016.772400,258.564575 1036.302979,254.592606 
	C1043.807495,253.066406 1049.060547,248.117355 1051.329834,240.177673 
	C1047.436035,239.407654 1043.902466,238.482254 1040.312866,238.130753 
	C1039.166992,238.018539 1037.424438,239.131577 1036.720825,240.192154 
	C1033.211792,245.481171 1026.711060,247.000748 1022.266479,242.455215 
	C1019.713928,239.844574 1018.788452,235.643005 1018.041870,232.078735 
M1012.965393,83.582413 
	C1012.822266,83.863808 1012.679077,84.145210 1012.535889,84.426590 
	C1012.147888,84.221840 1011.712830,84.075142 1011.378845,83.803879 
	C997.839661,72.810608 980.660217,77.858475 976.609924,94.752068 
	C975.007263,101.436638 974.920166,109.151634 976.542236,115.813255 
	C980.858337,133.539200 997.780212,138.335144 1011.304993,126.418861 
	C1011.997437,125.808815 1012.977844,125.525612 1013.906006,125.980827 
	C1013.906006,127.902077 1013.906006,129.823318 1013.906006,131.734024 
	C1018.611389,131.734024 1022.681396,131.734024 1026.729248,131.734024 
	C1026.729248,107.383400 1026.729248,83.332993 1026.729248,59.282425 
	C1022.035461,59.282425 1017.639954,59.282425 1013.138550,59.282425 
	C1013.138550,67.382378 1013.138550,75.179039 1012.965393,83.582413 
M894.958679,127.940170 
	C894.958679,129.200684 894.958679,130.461182 894.958679,131.747589 
	C899.551636,131.747589 903.627319,131.747589 907.767456,131.747589 
	C907.767456,107.422127 907.767456,83.382172 907.767456,59.259090 
	C903.098999,59.259090 898.704224,59.259090 893.835938,59.259090 
	C893.835938,67.986198 893.835938,76.440659 893.237488,84.630745 
	C883.926331,73.621948 864.180176,75.884750 858.205383,92.095619 
	C855.222290,100.189514 855.051270,108.611259 857.764954,116.960823 
	C861.402344,128.152512 868.791992,133.913788 880.310425,132.749847 
	C884.655334,132.310760 888.729065,128.919998 892.851013,126.732620 
	C893.877258,126.188011 894.703430,124.373116 894.958679,127.940170 
M958.039307,249.466187 
	C958.203186,249.196625 958.367065,248.927063 958.530945,248.657516 
	C958.907104,248.908096 959.309326,249.127228 959.655640,249.413818 
	C971.582031,259.283630 986.441956,256.615479 992.647034,242.978851 
	C997.316284,232.717422 997.354553,222.018143 992.267517,211.749237 
	C987.574524,202.275620 976.849365,197.706573 967.122437,201.219467 
	C963.539917,202.513321 960.468689,205.222992 957.216614,207.254150 
	C957.112366,206.246170 956.992981,205.091522 957.027405,203.079910 
	C956.375488,202.392792 955.754456,201.149826 955.066528,201.111649 
	C951.473145,200.912109 947.862732,201.018524 943.996521,201.018524 
	C943.996521,225.394943 943.988464,249.187134 944.042786,272.979187 
	C944.044189,273.577911 944.733948,274.175079 945.742493,274.929962 
	C946.175293,274.878357 946.608032,274.826752 947.846619,274.937164 
	C949.209534,274.884033 950.572510,274.830902 952.701599,274.941162 
	C953.479370,274.884430 954.257202,274.827698 955.889954,274.945099 
	C956.602905,274.003662 957.917969,273.071777 957.933105,272.119263 
	C958.049927,264.761719 957.915161,257.400146 958.039307,249.466187 
M767.721375,249.588089 
	C767.721375,247.167358 767.721375,244.746628 767.721375,242.137238 
	C754.218323,242.137238 741.128113,242.137238 727.288452,241.667191 
	C727.288452,235.253189 727.288452,228.839172 727.288452,222.080429 
	C739.481873,222.080429 751.257568,222.080429 763.308777,222.080429 
	C763.308777,217.975906 763.308777,214.227173 763.308777,209.980865 
	C751.221497,209.980865 739.321838,209.980865 727.072632,209.980865 
	C727.072632,204.369797 727.072632,199.244965 727.994385,194.034241 
	C740.640686,194.034241 753.286987,194.034241 766.846619,194.034241 
	C766.153503,189.356140 765.562378,185.365860 764.056824,181.180145 
	C747.369324,181.246155 730.681763,181.312180 713.162048,181.220078 
	C712.765930,182.659393 712.029663,184.097534 712.024719,185.538193 
	C711.950195,207.023697 711.967163,228.509537 711.984436,249.995285 
	C711.985474,251.267792 712.172546,252.540146 712.291321,254.044693 
	C730.224121,254.044693 747.854919,254.052521 765.485657,254.001389 
	C765.945068,254.000061 766.402588,253.355026 767.009521,252.286377 
	C767.017578,251.547592 767.025635,250.808807 767.721375,249.588089 
M1223.098755,181.180862 
	C1219.169067,181.180862 1215.239380,181.180862 1211.964844,181.180862 
	C1211.964844,199.283173 1211.645264,216.723816 1212.084351,234.145340 
	C1212.349976,244.687515 1218.135742,251.828247 1228.410400,253.870071 
	C1235.452637,255.269562 1242.997437,255.557419 1250.134155,254.740463 
	C1261.438477,253.446457 1268.785767,244.517822 1268.986206,233.307022 
	C1269.239258,219.161133 1269.271240,205.011261 1269.387207,190.863007 
	C1269.412842,187.745361 1269.390991,184.627319 1269.390991,181.505920 
	C1264.209106,181.505920 1259.649292,181.505920 1254.847046,181.505920 
	C1254.847046,195.678146 1255.111938,209.498322 1254.709839,223.299026 
	C1254.560303,228.432388 1254.254272,234.471756 1251.567749,238.436356 
	C1245.457397,247.453568 1230.878052,243.924667 1226.187134,231.981262 
	C1226.131592,216.381180 1226.122681,200.780533 1225.934204,185.182053 
	C1225.918823,183.905609 1224.680176,182.643921 1223.098755,181.180862 
M1079.113647,132.032196 
	C1080.404785,130.294693 1081.695923,128.557205 1082.956177,126.861137 
	C1097.586548,140.116074 1115.122192,131.642349 1118.669678,116.564857 
	C1120.285156,109.698601 1120.060913,101.981171 1118.850586,94.963852 
	C1116.908447,83.702843 1107.324829,76.882095 1096.063965,78.180099 
	C1091.574585,78.697571 1087.333252,81.365913 1082.609741,83.198341 
	C1082.609741,75.334549 1082.609741,67.266167 1082.609741,59.307453 
	C1077.711060,59.307453 1073.309326,59.307453 1068.912598,59.307453 
	C1068.912598,83.687675 1068.912598,107.731667 1068.912598,132.039368 
	C1072.234619,132.039368 1075.219727,132.039368 1079.113647,132.032196 
M589.367981,80.054848 
	C593.577393,79.909683 591.039612,77.113312 590.623413,75.958885 
	C586.734009,65.172012 578.439941,59.625576 567.503174,58.275326 
	C555.312195,56.770226 544.415161,59.855927 536.225220,69.684959 
	C531.040466,75.907333 529.135864,83.453781 528.303772,91.267044 
	C525.944763,113.417168 538.685242,134.396393 563.003052,133.164062 
	C578.003601,132.403900 588.246521,124.901970 591.713074,109.816147 
	C587.087280,108.399940 582.434509,106.975471 577.701721,105.526527 
	C577.330017,106.496414 577.132874,106.925293 576.998840,107.373062 
	C574.292053,116.417465 568.632019,121.169449 560.865356,120.908745 
	C552.647217,120.632874 546.917725,115.660591 544.909668,106.522255 
	C544.062500,102.667091 543.575012,98.633484 543.656006,94.696045 
	C543.792114,88.077248 544.163940,81.358482 548.969910,76.012390 
	C557.509583,66.512917 571.242188,69.756111 577.671082,82.928894 
	C581.281738,82.020294 584.934265,81.101166 589.367981,80.054848 
M1133.100098,153.303986 
	C1144.795410,155.272644 1151.993652,151.470337 1156.533691,140.767883 
	C1158.016846,137.271667 1159.227783,133.659088 1160.536255,130.089874 
	C1166.713867,113.239189 1172.881958,96.385063 1179.161987,79.235840 
	C1173.967407,79.235840 1169.222656,79.235840 1164.553345,79.235840 
	C1160.497681,91.367317 1156.526855,103.244675 1152.135376,116.380798 
	C1149.676270,108.909935 1147.764771,102.995010 1145.780640,97.104561 
	C1143.744385,91.059578 1141.637207,85.038498 1139.611694,79.153595 
	C1134.533691,79.153595 1129.898438,79.153595 1124.777954,79.153595 
	C1125.392822,80.977867 1125.858276,82.519485 1126.427246,84.021935 
	C1131.975708,98.676895 1137.551025,113.321732 1143.098755,127.976997 
	C1146.016235,135.684433 1141.785767,141.937943 1133.661011,141.972244 
	C1131.871338,141.979797 1130.081787,141.973343 1128.025879,141.973343 
	C1128.377930,145.191422 1128.419922,148.030045 1129.117432,150.697296 
	C1129.382202,151.709915 1131.155396,152.328125 1133.100098,153.303986 
M1412.751099,252.449997 
	C1428.579224,243.634674 1430.411865,223.943069 1422.420166,211.896149 
	C1414.347412,199.727203 1397.436523,196.395889 1384.422363,204.080688 
	C1373.221558,210.694687 1368.110229,227.709000 1375.315430,241.955292 
	C1381.568970,254.319931 1397.282471,258.831665 1412.751099,252.449997 
M917.918335,202.300720 
	C915.843994,201.770691 913.786743,201.158279 911.692444,200.724380 
	C900.374207,198.379425 889.063354,202.838058 883.482666,211.796890 
	C877.032532,222.151764 877.503235,237.035843 884.564819,246.012024 
	C890.641357,253.736084 904.311096,257.589508 914.503357,254.451569 
	C925.941650,250.929977 933.400940,241.605408 933.901917,228.955353 
	C934.305542,218.763290 929.884033,207.932999 917.918335,202.300720 
M602.962158,117.289917 
	C608.444275,131.499619 622.741638,135.214310 635.544861,132.430740 
	C650.683228,129.139481 658.776855,113.703056 654.838318,97.447403 
	C651.535767,83.816711 636.383240,75.033241 622.154297,78.501526 
	C604.885559,82.710762 597.033813,98.135826 602.962158,117.289917 
M1061.139404,233.092850 
	C1058.412598,240.715912 1059.970337,247.556274 1065.434082,251.951599 
	C1072.170654,257.370850 1082.656860,256.441010 1093.710205,249.349350 
	C1094.371948,250.943344 1095.019531,252.503082 1095.571655,253.833069 
	C1100.228149,253.833069 1104.495483,253.833069 1108.776001,253.833069 
	C1108.148315,250.880142 1107.190430,248.184418 1107.062622,245.449936 
	C1106.574707,235.004852 1106.247192,224.549072 1106.074951,214.093735 
	C1105.977539,208.179947 1103.071533,204.158813 1097.857666,202.269424 
	C1089.039917,199.074127 1079.927490,198.757141 1071.201782,202.526443 
	C1065.671997,204.915222 1062.540894,209.613495 1061.483765,215.686401 
	C1063.510010,215.993347 1065.160278,216.163788 1066.774902,216.503983 
	C1070.545410,217.298355 1073.672852,217.953217 1076.436157,213.537598 
	C1079.079834,209.313141 1084.292969,210.644531 1088.411743,211.490723 
	C1092.431152,212.316498 1092.536987,216.041183 1092.818970,219.937958 
	C1088.233398,220.981735 1083.755859,221.956436 1079.300903,223.025406 
	C1072.584351,224.637009 1065.463379,225.519073 1061.139404,233.092850 
M919.867737,118.411453 
	C924.561401,129.662186 931.330627,133.339783 946.760315,133.021667 
	C955.601807,132.839386 962.742188,127.441696 966.166077,117.966934 
	C963.556335,117.463448 960.997986,117.098511 958.510376,116.458595 
	C955.106689,115.583054 952.171814,115.239105 950.454773,119.370018 
	C949.975098,120.523903 948.283325,121.334114 946.982910,121.959312 
	C941.026611,124.822884 932.104004,119.654907 932.399109,109.773010 
	C943.797241,109.773010 955.219299,109.773010 967.409546,109.773010 
	C966.907959,104.825020 966.892090,100.327553 965.931824,96.041702 
	C963.445435,84.945450 954.389038,78.039795 942.904358,77.973869 
	C931.046997,77.905800 921.156006,84.577408 919.242493,95.726875 
	C918.022217,102.836945 919.298889,110.375565 919.867737,118.411453 
M1481.405518,254.080688 
	C1482.840942,253.987381 1484.276245,253.894073 1485.977905,253.783478 
	C1485.977905,241.319931 1486.456665,229.167450 1485.847290,217.069763 
	C1485.198364,204.185989 1475.619873,197.515976 1463.132812,200.915573 
	C1458.864868,202.077530 1455.022217,204.801437 1450.980103,206.814285 
	C1450.812988,205.360245 1450.578979,203.323944 1450.339844,201.243912 
	C1445.917236,201.243912 1441.822388,201.243912 1437.470947,201.243912 
	C1437.470947,218.869232 1437.470947,236.251678 1437.470947,253.699829 
	C1442.288696,253.699829 1446.821289,253.699829 1451.681396,253.699829 
	C1451.681396,246.014374 1451.640015,238.709427 1451.698853,231.405289 
	C1451.728271,227.745361 1451.745361,224.067017 1452.115967,220.432465 
	C1452.670654,214.993698 1457.104980,211.140533 1462.523560,211.036560 
	C1468.064697,210.930237 1470.343140,212.965866 1471.103760,219.528427 
	C1471.676025,224.464828 1471.830688,229.462143 1471.934448,234.437286 
	C1472.068604,240.870392 1471.967285,247.308426 1471.967285,254.077255 
	C1475.170654,254.077255 1477.804077,254.077255 1481.405518,254.080688 
M1313.567627,211.465805 
	C1315.080566,213.842255 1317.533447,216.077103 1317.917114,218.623688 
	C1318.803345,224.507431 1318.795654,230.539551 1318.945312,236.516617 
	C1319.089600,242.279968 1318.976440,248.049774 1318.976440,253.736450 
	C1323.999756,253.736450 1328.391846,253.736450 1333.033936,253.736450 
	C1333.033936,252.236557 1333.034424,251.089264 1333.033936,249.941956 
	C1333.028931,239.115814 1333.349731,228.277191 1332.935059,217.466766 
	C1332.432861,204.375397 1322.902466,197.478348 1310.086670,200.946091 
	C1305.820068,202.100571 1301.979614,204.829788 1297.939697,206.841370 
	C1297.862305,205.398621 1297.758667,203.469269 1297.642212,201.298676 
	C1293.213013,201.298676 1288.996338,201.298676 1284.677246,201.298676 
	C1284.677246,218.991516 1284.677246,236.386292 1284.677246,253.792206 
	C1289.439819,253.792206 1293.864624,253.792206 1299.002075,253.792206 
	C1299.002075,243.556473 1298.873291,233.599960 1299.039185,223.648392 
	C1299.197388,214.168854 1303.110229,210.755829 1313.567627,211.465805 
M734.855835,79.161751 
	C735.071594,93.660172 734.702271,108.202034 735.774109,122.636887 
	C736.241150,128.926575 742.828613,132.534546 749.260681,133.072281 
	C756.819092,133.704163 763.208252,131.437286 768.971497,125.599945 
	C769.146606,128.111755 769.267029,129.838303 769.402954,131.788422 
	C773.741272,131.788422 777.846191,131.788422 782.234009,131.788422 
	C782.234009,114.285683 782.234009,96.882088 782.234009,79.368393 
	C777.514893,79.368393 772.996216,79.368393 768.206238,79.368393 
	C768.206238,80.910545 768.213867,82.056953 768.204956,83.203239 
	C768.129944,92.855164 768.139709,102.508865 767.942200,112.158310 
	C767.821350,118.059631 763.311890,122.522034 757.539734,122.831665 
	C752.404663,123.107132 749.618958,120.306747 748.876526,113.663971 
	C748.416260,109.546013 748.222351,105.384682 748.158813,101.238991 
	C748.047302,93.966568 748.127747,86.691200 748.127747,79.611130 
	C747.356445,79.285011 747.065979,79.057281 746.773193,79.054314 
	C743.112610,79.017281 739.451660,79.012825 734.855835,79.161751 
M716.087402,98.556808 
	C716.087402,95.793007 716.087402,93.029205 716.087402,89.749725 
	C720.134033,89.749725 723.521362,89.749725 726.787842,89.749725 
	C726.787842,85.932556 726.787842,82.655197 726.787842,78.910400 
	C723.147766,78.910400 719.736084,78.910400 715.509521,78.910400 
	C716.332520,75.605324 716.187317,71.528595 717.834900,70.586212 
	C720.846863,68.863411 724.919067,68.994377 728.650696,68.334221 
	C730.545532,58.476173 730.318420,58.190544 720.084290,57.978256 
	C719.086609,57.957561 718.086914,57.940815 717.090210,57.977631 
	C708.511902,58.294502 703.890015,62.178524 702.468811,70.507080 
	C702.006104,73.218788 701.999084,76.008263 701.764893,79.001465 
	C699.296631,79.001465 697.165771,79.001465 694.754028,79.001465 
	C694.754028,82.700134 694.754028,86.119850 694.754028,89.751465 
	C697.183777,89.919601 699.432983,90.075249 702.156738,90.263733 
	C702.156738,104.173828 702.156738,117.888855 702.156738,131.721680 
	C707.041199,131.721680 711.426025,131.721680 716.087891,131.721680 
	C716.087891,120.789360 716.087891,110.166801 716.087402,98.556808 
M531.075256,193.960052 
	C531.075256,196.220169 531.075256,198.480270 531.075256,200.743454 
	C528.690735,200.959030 526.946228,201.116730 525.288879,201.266571 
	C525.288879,205.041046 525.288879,208.445953 525.288879,211.795242 
	C527.359131,212.012207 529.106506,212.195358 531.951294,212.493500 
	C531.951294,223.654892 531.844177,234.592590 531.999939,245.526535 
	C532.069885,250.435974 535.140503,254.000458 539.625549,254.654709 
	C544.941406,255.430161 550.479919,254.679581 556.489502,254.581116 
	C555.852661,249.679398 555.413025,246.295898 554.936340,242.627197 
	C552.953796,243.111526 551.398499,243.977859 550.117249,243.676987 
	C548.634705,243.328857 546.253601,241.988556 546.223938,241.018906 
	C545.931580,231.475494 546.047363,221.919586 546.047363,211.813904 
	C549.173950,211.813904 552.059814,211.813904 554.798462,211.813904 
	C554.798462,207.975357 554.798462,204.697235 554.798462,200.907990 
	C551.675781,200.907990 548.777954,200.907990 545.303528,200.907990 
	C545.303528,194.729141 545.303528,189.067474 545.303528,182.917923 
	C541.646667,185.069595 538.549805,186.678818 535.700989,188.646988 
	C533.962158,189.848267 532.604980,191.601776 531.075256,193.960052 
M1356.416748,254.068726 
	C1357.853271,253.987915 1359.289795,253.907120 1360.758057,253.824539 
	C1360.758057,236.116241 1360.758057,218.749344 1360.758057,201.312073 
	C1356.090210,201.312073 1351.705566,201.312073 1347.286621,201.312073 
	C1347.286621,218.984802 1347.286621,236.354340 1347.286621,254.070541 
	C1350.189575,254.070541 1352.818481,254.070541 1356.416748,254.068726 
z"/>
<path fill="#044EA1" opacity="1.000000" stroke="none" 
	d="
M466.744385,22.045862 
	C466.806824,25.701607 466.923676,29.357349 466.923706,33.013092 
	C466.924805,126.354317 466.913635,219.695541 466.426727,313.576691 
	C463.997284,314.406342 462.045776,314.949219 460.094116,314.949738 
	C316.332886,314.989685 172.571671,314.990570 28.810452,314.946198 
	C26.872223,314.945618 24.934183,314.329865 22.995928,313.700470 
	C22.584951,312.611023 22.174101,311.822357 21.763248,311.033661 
	C21.638144,309.718628 21.403793,308.403625 21.403522,307.088562 
	C21.384295,213.344772 21.383551,119.600983 21.384697,25.857191 
	C21.384705,25.191900 21.431786,24.526608 21.934408,23.318804 
	C24.580212,22.188923 26.748207,21.088627 28.916819,21.087410 
	C172.578735,21.006813 316.240692,21.010157 459.902649,21.058128 
	C462.183319,21.058889 464.463837,21.702335 466.744385,22.045862 
M187.463425,264.232483 
	C190.126266,262.571625 192.789093,260.910797 195.352646,259.311859 
	C198.010132,260.752716 200.582062,262.147186 203.153992,263.541656 
	C203.531586,263.274139 203.909164,263.006622 204.286743,262.739105 
	C199.067810,255.607407 204.788467,252.059021 209.899277,247.070724 
	C201.609955,248.882477 196.792984,247.016815 196.105408,238.186996 
	C193.633270,245.479309 189.668442,249.616409 181.688370,247.824692 
	C184.264969,250.638916 187.758286,252.316452 188.564697,254.849426 
	C189.385681,257.428162 187.561615,260.848969 186.765823,264.146576 
	C186.778442,264.043488 186.791046,263.940430 187.463425,264.232483 
M158.540070,163.110092 
	C150.350861,165.336945 148.712814,159.198654 146.469070,153.040329 
	C145.711868,162.406799 140.395660,164.805527 132.079391,163.311279 
	C134.733994,165.912460 138.292938,167.314209 139.347656,169.784958 
	C140.388412,172.223053 138.895599,175.742691 138.439026,179.388947 
	C139.935944,178.842163 141.582062,178.717606 142.472015,177.832642 
	C146.169556,174.155869 149.035156,175.467148 151.932251,178.835968 
	C152.661209,179.683609 153.934174,180.063400 154.957123,180.658203 
	C155.335098,180.458023 155.713074,180.257858 156.091064,180.057678 
	C151.987854,173.368561 153.092377,168.330704 160.016785,165.088806 
	C160.390091,164.914047 160.579285,164.345993 160.854172,163.961014 
	C160.322342,163.683105 159.790497,163.405197 158.540070,163.110092 
M284.612305,264.528656 
	C287.205658,262.753235 289.799011,260.977814 292.506622,259.124207 
	C295.333801,260.997040 298.110077,262.836182 300.886383,264.675354 
	C296.953552,256.939850 299.754364,251.939423 307.218353,247.573914 
	C298.370544,250.205139 294.713562,245.373581 291.630371,238.095169 
	C291.991821,248.617477 284.891174,247.769653 277.638794,247.669571 
	C281.012390,250.474121 284.678955,252.067474 285.457916,254.562363 
	C286.305359,257.276825 284.467621,260.827881 283.817596,264.017670 
	C283.790192,264.152100 283.934296,264.321503 284.612305,264.528656 
M186.413803,84.168106 
	C192.454620,87.778709 185.176697,92.202957 187.439606,96.636902 
	C192.017670,91.784271 197.070862,89.532059 203.110748,96.397789 
	C202.850784,91.682831 201.716766,88.251328 202.794830,85.787872 
	C203.846741,83.384171 207.158875,81.969589 209.478745,80.120773 
	C209.449997,79.658989 209.421249,79.197205 209.392487,78.735420 
	C201.473236,81.171494 197.073715,78.132484 195.378326,69.654869 
	C194.236771,79.313972 188.058624,80.150803 181.102676,80.252518 
	C182.673767,81.419907 184.244843,82.587303 186.413803,84.168106 
M298.849792,79.162346 
	C296.650787,76.457672 294.451782,73.752991 291.650604,70.307663 
	C291.489807,79.350906 285.572601,80.127663 278.576019,79.592155 
	C281.065125,82.137321 284.564087,83.643150 285.503357,86.119766 
	C286.400391,88.484917 284.632263,91.860840 284.035645,94.792458 
	C290.744202,89.389923 296.145355,91.891449 301.864014,96.824348 
	C296.943939,88.729851 300.033783,83.569756 306.612671,79.180489 
	C304.311890,79.180489 302.011139,79.180489 298.849792,79.162346 
M237.037216,270.208832 
	C236.348450,272.543823 235.659668,274.878845 234.970901,277.213867 
	C241.115875,271.578308 246.867737,271.415771 252.746811,278.065460 
	C252.106064,273.963593 250.069412,270.360870 250.960022,267.760834 
	C251.893036,265.036987 255.636322,263.275787 258.571289,260.729431 
	C247.267807,259.309052 247.267807,259.309052 243.933960,252.443878 
	C241.767670,260.055542 236.343735,261.261902 229.799530,260.735138 
	C231.362656,262.540314 233.075806,263.540070 234.372192,264.928833 
	C235.567535,266.209351 236.315430,267.907562 237.037216,270.208832 
M251.650742,72.137901 
	C253.917068,70.421638 256.183411,68.705376 258.449738,66.989113 
	C258.452515,66.487556 258.455322,65.985992 258.458099,65.484436 
	C249.623199,68.508713 245.630188,64.213333 243.696594,55.960262 
	C243.114471,65.745407 237.366898,67.313232 228.337189,65.692184 
	C232.371109,69.140533 236.236328,70.914360 237.161392,73.673836 
	C238.053406,76.334671 235.909927,80.013100 235.100006,83.244476 
	C241.131760,77.055367 246.874023,77.741119 252.577148,83.861145 
	C252.019135,79.503387 251.579758,76.072151 251.650742,72.137901 
M168.758133,227.888443 
	C165.799988,222.178772 165.535660,217.017593 172.715317,212.809311 
	C163.690674,214.003738 161.560944,208.175659 159.995895,201.151276 
	C158.289474,205.070679 157.742905,208.670410 155.649155,210.460892 
	C153.645615,212.174240 150.033981,212.007111 145.670517,212.997620 
	C153.803146,216.619370 154.348557,222.215988 151.067123,229.358383 
	C156.991684,222.979248 162.314240,223.335190 167.626221,228.867523 
	C167.753494,229.000061 168.382095,228.651276 168.758133,227.888443 
M340.053345,155.142548 
	C339.623199,163.735535 333.284271,163.523193 326.404602,163.679688 
	C333.403015,167.111115 336.708038,171.678833 332.914734,179.425919 
	C336.212830,177.987915 338.571899,175.463120 340.900604,175.490799 
	C343.438568,175.520966 345.948395,177.918121 349.656036,179.925201 
	C348.715851,175.850052 348.049225,172.960663 347.415527,170.214066 
	C350.310059,167.990753 352.945587,165.966370 356.479553,163.251907 
	C354.079224,163.107422 353.067474,162.862991 352.122314,163.019867 
	C346.637573,163.930222 343.162140,162.241913 342.562042,156.211731 
	C342.498688,155.575195 341.092743,155.072250 340.053345,155.142548 
M328.832031,202.620102 
	C328.603058,202.501740 328.316315,202.235596 328.157776,202.297531 
	C327.876038,202.407578 327.519745,202.681061 327.457764,202.947388 
	C326.107086,208.752563 323.827942,213.417099 316.520355,212.179092 
	C316.382385,212.155746 316.158295,212.640930 315.629883,213.353241 
	C319.707275,216.734146 324.379547,220.293259 319.590698,227.143326 
	C323.079620,226.323074 325.849945,223.927719 328.312347,224.210846 
	C331.155975,224.537781 333.728149,227.225723 336.418213,228.888474 
	C332.350220,221.072433 335.764282,216.238358 342.583954,212.421783 
	C340.758667,212.056168 339.589478,211.921936 338.461029,212.079514 
	C333.690430,212.745682 330.829102,210.896652 330.024506,206.027710 
	C329.865479,205.065536 329.340820,204.163757 328.832031,202.620102 
M167.988342,129.070618 
	C164.111191,122.720650 168.138794,119.335068 173.584732,116.481377 
	C173.353455,116.136620 173.122177,115.791855 172.890900,115.447090 
	C169.723618,115.166466 166.556351,114.885834 163.589188,114.622932 
	C162.413834,111.303566 161.339493,108.269432 160.265137,105.235291 
	C158.478989,113.324020 154.185486,117.120743 145.447800,115.015358 
	C148.211731,117.811859 151.896881,119.458069 152.790085,122.061981 
	C153.693466,124.695564 151.832520,128.277374 151.105118,131.820602 
	C152.041229,131.495132 152.753555,131.449188 153.163727,131.073441 
	C156.981018,127.576591 160.818176,125.266060 165.389999,130.024063 
	C165.716782,130.364136 166.931854,129.850677 167.988342,129.070618 
M330.751129,110.883995 
	C330.013977,108.895927 329.276825,106.907867 328.539703,104.919800 
	C326.975769,112.610580 323.108032,117.166481 314.488068,116.036736 
	C316.949036,117.956474 319.409973,119.876221 321.939392,121.849365 
	C321.055786,125.182205 320.216614,128.347488 319.377441,131.512787 
	C319.621674,131.908264 319.865936,132.303757 320.110199,132.699234 
	C325.236389,125.248062 330.811005,126.440857 337.143524,131.613571 
	C333.354095,124.510864 334.322113,119.506424 341.540497,116.079567 
	C339.054718,115.301506 336.889984,115.478905 335.020569,114.819267 
	C333.486725,114.278038 332.304138,112.741356 330.751129,110.883995 
z"/>
<path fill="#084E9F" opacity="1.000000" stroke="none" 
	d="
M1226.140625,232.900818 
	C1230.878052,243.924667 1245.457397,247.453568 1251.567749,238.436356 
	C1254.254272,234.471756 1254.560303,228.432388 1254.709839,223.299026 
	C1255.111938,209.498322 1254.847046,195.678146 1254.847046,181.505920 
	C1259.649292,181.505920 1264.209106,181.505920 1269.390991,181.505920 
	C1269.390991,184.627319 1269.412842,187.745361 1269.387207,190.863007 
	C1269.271240,205.011261 1269.239258,219.161133 1268.986206,233.307022 
	C1268.785767,244.517822 1261.438477,253.446457 1250.134155,254.740463 
	C1242.997437,255.557419 1235.452637,255.269562 1228.410400,253.870071 
	C1218.135742,251.828247 1212.349976,244.687515 1212.084351,234.145340 
	C1211.645264,216.723816 1211.964844,199.283173 1211.964844,181.180862 
	C1215.239380,181.180862 1219.169067,181.180862 1223.569580,181.676102 
	C1224.355957,184.616135 1224.926636,187.059097 1224.944336,189.506058 
	C1225.036987,202.286911 1224.947021,215.069077 1225.041382,227.849884 
	C1225.053833,229.536148 1225.757202,231.217285 1226.140625,232.900818 
z"/>
<path fill="#074EA0" opacity="1.000000" stroke="none" 
	d="
M713.994263,181.378204 
	C730.681763,181.312180 747.369324,181.246155 764.520874,181.712051 
	C764.992859,183.571289 765.003906,184.898605 765.008057,186.225952 
	C765.029053,192.962051 765.028442,192.977203 758.509644,192.987442 
	C749.715942,193.001251 740.921448,192.930237 732.129089,193.039017 
	C730.439392,193.059921 728.757935,193.742722 727.072632,194.120148 
	C727.072632,199.244965 727.072632,204.369797 727.072632,209.980865 
	C739.321838,209.980865 751.221497,209.980865 763.308777,209.980865 
	C763.308777,214.227173 763.308777,217.975906 763.308777,222.080429 
	C751.257568,222.080429 739.481873,222.080429 727.288452,222.080429 
	C727.288452,228.839172 727.288452,235.253189 727.972595,242.174347 
	C741.135376,242.681488 753.613953,242.681488 765.989563,242.681488 
	C766.445007,245.904434 766.739380,247.987228 767.033691,250.070023 
	C767.025635,250.808807 767.017578,251.547592 766.475708,252.641724 
	C750.458862,252.996490 734.972778,252.822556 719.494507,253.095963 
	C714.551086,253.183304 712.813354,251.838394 712.898132,246.666977 
	C713.190186,228.857895 712.952209,211.040741 713.054565,193.227463 
	C713.077271,189.276047 713.666077,185.327866 713.994263,181.378204 
z"/>
<path fill="#0A4F9F" opacity="1.000000" stroke="none" 
	d="
M1078.659180,132.035782 
	C1075.219727,132.039368 1072.234619,132.039368 1068.912598,132.039368 
	C1068.912598,107.731667 1068.912598,83.687675 1068.912598,59.307453 
	C1073.309326,59.307453 1077.711060,59.307453 1082.609741,59.307453 
	C1082.609741,67.266167 1082.609741,75.334549 1082.609741,83.198341 
	C1087.333252,81.365913 1091.574585,78.697571 1096.063965,78.180099 
	C1107.324829,76.882095 1116.908447,83.702843 1118.850586,94.963852 
	C1120.060913,101.981171 1120.285156,109.698601 1118.669678,116.564857 
	C1115.122192,131.642349 1097.586548,140.116074 1082.956177,126.861137 
	C1081.695923,128.557205 1080.404785,130.294693 1078.659180,132.035782 
M1091.564575,122.079926 
	C1097.565308,123.606079 1102.211792,121.254433 1104.395874,115.144501 
	C1106.703979,108.687965 1106.617432,102.109894 1104.100098,95.695595 
	C1102.369873,91.287132 1099.186890,88.813240 1094.226562,88.783012 
	C1089.282104,88.752884 1085.560547,91.114311 1084.308228,95.537460 
	C1083.079590,99.876801 1083.023315,104.630440 1082.993042,109.205811 
	C1082.955322,114.911430 1085.380371,119.438011 1091.564575,122.079926 
z"/>
<path fill="#0A4F9F" opacity="1.000000" stroke="none" 
	d="
M588.977417,80.118439 
	C584.934265,81.101166 581.281738,82.020294 577.671082,82.928894 
	C571.242188,69.756111 557.509583,66.512917 548.969910,76.012390 
	C544.163940,81.358482 543.792114,88.077248 543.656006,94.696045 
	C543.575012,98.633484 544.062500,102.667091 544.909668,106.522255 
	C546.917725,115.660591 552.647217,120.632874 560.865356,120.908745 
	C568.632019,121.169449 574.292053,116.417465 576.998840,107.373062 
	C577.132874,106.925293 577.330017,106.496414 577.701721,105.526527 
	C582.434509,106.975471 587.087280,108.399940 591.713074,109.816147 
	C588.246521,124.901970 578.003601,132.403900 563.003052,133.164062 
	C538.685242,134.396393 525.944763,113.417168 528.303772,91.267044 
	C529.135864,83.453781 531.040466,75.907333 536.225220,69.684959 
	C544.415161,59.855927 555.312195,56.770226 567.503174,58.275326 
	C578.439941,59.625576 586.734009,65.172012 590.623413,75.958885 
	C591.039612,77.113312 593.577393,79.909683 588.977417,80.118439 
z"/>
<path fill="#084E9F" opacity="1.000000" stroke="none" 
	d="
M947.040833,274.775146 
	C946.608032,274.826752 946.175293,274.878357 945.398071,274.398010 
	C945.040161,251.496750 945.003784,229.127350 945.064636,206.758209 
	C945.068726,205.257889 945.901001,202.440491 946.192017,202.460922 
	C949.769470,202.711853 953.317749,203.378021 956.873596,203.936859 
	C956.992981,205.091522 957.112366,206.246170 957.216614,207.254150 
	C960.468689,205.222992 963.539917,202.513321 967.122437,201.219467 
	C976.849365,197.706573 987.574524,202.275620 992.267517,211.749237 
	C997.354553,222.018143 997.316284,232.717422 992.647034,242.978851 
	C986.441956,256.615479 971.582031,259.283630 959.655640,249.413818 
	C959.309326,249.127228 958.907104,248.908096 958.530945,248.657501 
	C958.367065,248.927063 958.203186,249.196625 957.677002,250.062378 
	C957.205688,256.742767 957.245178,262.835297 956.903015,268.906342 
	C956.791199,270.890015 955.685913,272.817688 955.034973,274.770966 
	C954.257202,274.827698 953.479370,274.884430 952.071716,274.638672 
	C949.974854,274.482513 948.507812,274.628845 947.040833,274.775146 
M978.723389,240.014252 
	C982.183289,233.656998 981.761719,226.850861 980.420715,220.185547 
	C979.220642,214.220642 975.326782,211.145218 970.289062,211.008820 
	C964.666199,210.856552 961.377869,213.537857 958.934570,219.451309 
	C956.234497,225.986435 957.273193,232.226105 960.138184,238.200317 
	C964.002136,246.257812 971.938354,247.186874 978.723389,240.014252 
z"/>
<path fill="#084E9F" opacity="1.000000" stroke="none" 
	d="
M895.113220,127.067162 
	C894.703430,124.373116 893.877258,126.188011 892.851013,126.732620 
	C888.729065,128.919998 884.655334,132.310760 880.310425,132.749847 
	C868.791992,133.913788 861.402344,128.152512 857.764954,116.960823 
	C855.051270,108.611259 855.222290,100.189514 858.205383,92.095619 
	C864.180176,75.884750 883.926331,73.621948 893.877747,84.528503 
	C894.682861,77.816299 895.205444,71.189575 894.896667,64.601814 
	C894.659912,59.552208 897.526245,59.915623 900.836487,59.948994 
	C904.218201,59.983097 907.192017,59.384777 907.110474,64.769745 
	C906.806458,84.857582 907.011353,104.952873 906.964783,125.045227 
	C906.959351,127.373047 907.869751,130.607452 904.132629,130.865417 
	C900.663513,131.104874 896.334045,132.516068 895.113220,127.067162 
M893.012024,113.171371 
	C893.037354,108.409332 893.546692,103.588013 892.972595,98.899391 
	C892.148010,92.165619 887.736023,88.610168 881.660828,88.799072 
	C876.222168,88.968178 871.683960,93.246674 871.096863,99.382088 
	C870.703674,103.490753 870.626648,107.716545 871.129700,111.801048 
	C871.698059,116.415459 873.917603,120.327690 878.708679,122.013176 
	C884.822693,124.164047 889.016357,121.760239 893.012024,113.171371 
z"/>
<path fill="#084FA0" opacity="1.000000" stroke="none" 
	d="
M1013.824158,125.090210 
	C1012.977844,125.525612 1011.997437,125.808815 1011.304993,126.418861 
	C997.780212,138.335144 980.858337,133.539200 976.542236,115.813255 
	C974.920166,109.151634 975.007263,101.436638 976.609924,94.752068 
	C980.660217,77.858475 997.839661,72.810608 1011.378845,83.803879 
	C1011.712830,84.075142 1012.147888,84.221840 1012.535889,84.426605 
	C1012.679077,84.145210 1012.822266,83.863808 1013.322327,82.966766 
	C1013.784546,76.385971 1014.088806,70.415169 1013.919678,64.457809 
	C1013.819946,60.945152 1015.023010,59.494736 1018.473267,60.001869 
	C1021.520386,60.449749 1026.026367,58.214874 1026.015503,64.253311 
	C1025.978271,85.017448 1025.964355,105.781815 1026.041016,126.545723 
	C1026.052246,129.574997 1024.510620,130.437576 1021.903198,131.013245 
	C1016.787231,132.142792 1015.530579,128.396500 1013.824158,125.090210 
M1000.648376,122.845078 
	C1007.823303,121.650177 1010.947937,119.314972 1011.968811,112.430702 
	C1012.706604,107.455399 1012.667603,102.134850 1011.723633,97.208099 
	C1010.863831,92.721329 1007.783875,89.191574 1002.470520,88.836815 
	C997.073608,88.476471 992.665100,90.614120 991.254761,95.835732 
	C990.031189,100.365578 989.972900,105.320427 990.077576,110.072510 
	C990.228699,116.934479 993.363037,120.596443 1000.648376,122.845078 
z"/>
<path fill="#094FA0" opacity="1.000000" stroke="none" 
	d="
M596.776489,213.068268 
	C587.466431,207.899368 579.259277,212.482040 579.058533,223.164429 
	C578.868591,233.272812 579.017700,243.387589 579.017700,253.782745 
	C573.990601,253.782745 569.607544,253.782745 564.992126,253.782745 
	C564.992126,229.667252 564.992126,205.761932 564.992126,181.496246 
	C569.436340,181.496246 573.816040,181.496246 578.641357,181.496246 
	C578.641357,189.834320 578.641357,198.077316 578.641357,207.235657 
	C585.622009,201.288162 592.671753,198.329147 601.065186,200.981918 
	C605.491943,202.380997 609.172058,204.711472 610.994507,209.973938 
	C611.398315,212.114441 611.794739,213.539871 612.191223,214.965286 
	C612.400879,215.405762 612.610474,215.846252 612.550781,216.990402 
	C612.187683,227.651733 611.862061,237.615005 612.103027,247.564575 
	C612.214844,252.178467 609.571960,252.897324 606.249939,252.916428 
	C602.840027,252.936020 599.729675,252.582733 599.902771,247.569122 
	C600.217712,238.441605 600.093445,229.293243 599.900696,220.158875 
	C599.864136,218.425659 598.661011,216.717056 597.996155,214.997086 
	C597.996155,214.997086 598.000061,215.000000 597.970215,214.690491 
	C597.552429,213.943405 597.164429,213.505844 596.776489,213.068268 
z"/>
<path fill="#0A4F9E" opacity="1.000000" stroke="none" 
	d="
M1132.670532,153.215057 
	C1131.155396,152.328125 1129.382202,151.709915 1129.117432,150.697296 
	C1128.419922,148.030045 1128.377930,145.191422 1128.025879,141.973343 
	C1130.081787,141.973343 1131.871338,141.979797 1133.661011,141.972244 
	C1141.785767,141.937943 1146.016235,135.684433 1143.098755,127.976997 
	C1137.551025,113.321732 1131.975708,98.676895 1126.427246,84.021935 
	C1125.858276,82.519485 1125.392822,80.977867 1124.777954,79.153595 
	C1129.898438,79.153595 1134.533691,79.153595 1139.611694,79.153595 
	C1141.637207,85.038498 1143.744385,91.059578 1145.780640,97.104561 
	C1147.764771,102.995010 1149.676270,108.909935 1152.135376,116.380798 
	C1156.526855,103.244675 1160.497681,91.367317 1164.553345,79.235840 
	C1169.222656,79.235840 1173.967407,79.235840 1179.161987,79.235840 
	C1172.881958,96.385063 1166.713867,113.239189 1160.536255,130.089874 
	C1159.227783,133.659088 1158.016846,137.271667 1156.533691,140.767883 
	C1151.993652,151.470337 1144.795410,155.272644 1132.670532,153.215057 
z"/>
<path fill="#0A4F9F" opacity="1.000000" stroke="none" 
	d="
M1412.424805,252.648285 
	C1397.282471,258.831665 1381.568970,254.319931 1375.315430,241.955292 
	C1368.110229,227.709000 1373.221558,210.694687 1384.422363,204.080688 
	C1397.436523,196.395889 1414.347412,199.727203 1422.420166,211.896149 
	C1430.411865,223.943069 1428.579224,243.634674 1412.424805,252.648285 
M1401.959106,243.938095 
	C1411.995239,241.474152 1413.719849,230.541855 1411.346191,221.001526 
	C1409.900269,215.189377 1405.406250,211.869858 1399.927124,211.703674 
	C1394.338989,211.534164 1389.835571,214.424591 1388.032593,220.260941 
	C1387.041260,223.469910 1386.910889,227.058777 1386.990601,230.462372 
	C1387.194580,239.193893 1392.336304,243.948410 1401.959106,243.938095 
z"/>
<path fill="#0A4F9F" opacity="1.000000" stroke="none" 
	d="
M918.248291,202.504547 
	C929.884033,207.932999 934.305542,218.763290 933.901917,228.955353 
	C933.400940,241.605408 925.941650,250.929977 914.503357,254.451569 
	C904.311096,257.589508 890.641357,253.736084 884.564819,246.012024 
	C877.503235,237.035843 877.032532,222.151764 883.482666,211.796890 
	C889.063354,202.838058 900.374207,198.379425 911.692444,200.724380 
	C913.786743,201.158279 915.843994,201.770691 918.248291,202.504547 
M912.757996,213.340057 
	C905.544250,210.119461 898.790344,211.774597 895.654419,218.095215 
	C892.478638,224.496323 892.354675,231.301682 895.783508,237.657639 
	C900.273254,245.980072 911.713684,246.220108 916.688232,238.409180 
	C920.295837,232.744476 920.528625,217.951401 912.757996,213.340057 
z"/>
<path fill="#0A4F9E" opacity="1.000000" stroke="none" 
	d="
M602.885010,116.899071 
	C597.033813,98.135826 604.885559,82.710762 622.154297,78.501526 
	C636.383240,75.033241 651.535767,83.816711 654.838318,97.447403 
	C658.776855,113.703056 650.683228,129.139481 635.544861,132.430740 
	C622.741638,135.214310 608.444275,131.499619 602.885010,116.899071 
M641.018982,107.299484 
	C641.001099,105.476013 641.148254,103.632935 640.934326,101.832756 
	C640.308350,96.564346 637.795532,92.413727 632.865417,90.217133 
	C628.376099,88.216980 623.496765,88.876297 620.569153,92.422104 
	C617.918518,95.632408 616.215820,100.132149 615.476868,104.307846 
	C613.967041,112.839592 619.709412,121.110619 626.858521,121.948883 
	C634.429443,122.836609 640.055908,117.363670 641.018982,107.299484 
z"/>
<path fill="#0A4E9D" opacity="1.000000" stroke="none" 
	d="
M1061.331787,232.750214 
	C1065.463379,225.519073 1072.584351,224.637009 1079.300903,223.025406 
	C1083.755859,221.956436 1088.233398,220.981735 1092.818970,219.937958 
	C1092.536987,216.041183 1092.431152,212.316498 1088.411743,211.490723 
	C1084.292969,210.644531 1079.079834,209.313141 1076.436157,213.537598 
	C1073.672852,217.953217 1070.545410,217.298355 1066.774902,216.503983 
	C1065.160278,216.163788 1063.510010,215.993347 1061.483765,215.686401 
	C1062.540894,209.613495 1065.671997,204.915222 1071.201782,202.526443 
	C1079.927490,198.757141 1089.039917,199.074127 1097.857666,202.269424 
	C1103.071533,204.158813 1105.977539,208.179947 1106.074951,214.093735 
	C1106.247192,224.549072 1106.574707,235.004852 1107.062622,245.449936 
	C1107.190430,248.184418 1108.148315,250.880142 1108.776001,253.833069 
	C1104.495483,253.833069 1100.228149,253.833069 1095.571655,253.833069 
	C1095.019531,252.503082 1094.371948,250.943344 1093.710205,249.349350 
	C1082.656860,256.441010 1072.170654,257.370850 1065.434082,251.951599 
	C1059.970337,247.556274 1058.412598,240.715912 1061.331787,232.750214 
M1078.378052,232.687378 
	C1074.447021,234.183838 1073.138794,237.076447 1074.380615,240.948425 
	C1075.498291,244.433319 1079.757446,246.312485 1083.667603,245.353729 
	C1091.144531,243.520401 1093.772461,238.695358 1092.364014,229.079529 
	C1087.922119,230.157333 1083.498535,231.230682 1078.378052,232.687378 
z"/>
<path fill="#0B4F9E" opacity="1.000000" stroke="none" 
	d="
M919.661865,118.066742 
	C919.298889,110.375565 918.022217,102.836945 919.242493,95.726875 
	C921.156006,84.577408 931.046997,77.905800 942.904358,77.973869 
	C954.389038,78.039795 963.445435,84.945450 965.931824,96.041702 
	C966.892090,100.327553 966.907959,104.825020 967.409546,109.773010 
	C955.219299,109.773010 943.797241,109.773010 932.399109,109.773010 
	C932.104004,119.654907 941.026611,124.822884 946.982910,121.959312 
	C948.283325,121.334114 949.975098,120.523903 950.454773,119.370018 
	C952.171814,115.239105 955.106689,115.583054 958.510376,116.458595 
	C960.997986,117.098511 963.556335,117.463448 966.166077,117.966934 
	C962.742188,127.441696 955.601807,132.839386 946.760315,133.021667 
	C931.330627,133.339783 924.561401,129.662186 919.661865,118.066742 
M936.018555,91.389420 
	C934.987488,93.384293 933.759583,95.304749 932.971008,97.391273 
	C931.743896,100.638474 932.654785,102.324112 936.549500,102.050102 
	C940.499817,101.772171 944.489136,102.104019 948.453552,101.956909 
	C952.810547,101.795242 953.898254,100.047951 952.476624,95.937950 
	C950.015991,88.824158 943.476196,86.741142 936.018555,91.389420 
z"/>
<path fill="#0D519F" opacity="1.000000" stroke="none" 
	d="
M1480.921509,254.078979 
	C1477.804077,254.077255 1475.170654,254.077255 1471.967285,254.077255 
	C1471.967285,247.308426 1472.068604,240.870392 1471.934448,234.437286 
	C1471.830688,229.462143 1471.676025,224.464828 1471.103760,219.528427 
	C1470.343140,212.965866 1468.064697,210.930237 1462.523560,211.036560 
	C1457.104980,211.140533 1452.670654,214.993698 1452.115967,220.432465 
	C1451.745361,224.067017 1451.728271,227.745361 1451.698853,231.405289 
	C1451.640015,238.709427 1451.681396,246.014374 1451.681396,253.699829 
	C1446.821289,253.699829 1442.288696,253.699829 1437.470947,253.699829 
	C1437.470947,236.251678 1437.470947,218.869232 1437.470947,201.243912 
	C1441.822388,201.243912 1445.917236,201.243912 1450.339844,201.243912 
	C1450.578979,203.323944 1450.812988,205.360245 1450.980103,206.814285 
	C1455.022217,204.801437 1458.864868,202.077530 1463.132812,200.915573 
	C1475.619873,197.515976 1485.198364,204.185989 1485.847290,217.069763 
	C1486.456665,229.167450 1485.977905,241.319931 1485.977905,253.783478 
	C1484.276245,253.894073 1482.840942,253.987381 1480.921509,254.078979 
z"/>
<path fill="#0D51A0" opacity="1.000000" stroke="none" 
	d="
M1313.191162,211.312958 
	C1303.110229,210.755829 1299.197388,214.168854 1299.039185,223.648392 
	C1298.873291,233.599960 1299.002075,243.556473 1299.002075,253.792206 
	C1293.864624,253.792206 1289.439819,253.792206 1284.677246,253.792206 
	C1284.677246,236.386292 1284.677246,218.991516 1284.677246,201.298676 
	C1288.996338,201.298676 1293.213013,201.298676 1297.642212,201.298676 
	C1297.758667,203.469269 1297.862305,205.398621 1297.939697,206.841370 
	C1301.979614,204.829788 1305.820068,202.100571 1310.086670,200.946091 
	C1322.902466,197.478348 1332.432861,204.375397 1332.935059,217.466766 
	C1333.349731,228.277191 1333.028931,239.115814 1333.033936,249.941956 
	C1333.034424,251.089264 1333.033936,252.236557 1333.033936,253.736450 
	C1328.391846,253.736450 1323.999756,253.736450 1318.976440,253.736450 
	C1318.976440,248.049774 1319.089600,242.279968 1318.945312,236.516617 
	C1318.795654,230.539551 1318.803345,224.507431 1317.917114,218.623688 
	C1317.533447,216.077103 1315.080566,213.842255 1313.191162,211.312958 
z"/>
<path fill="#0B4F9E" opacity="1.000000" stroke="none" 
	d="
M735.323364,79.080879 
	C739.451660,79.012825 743.112610,79.017281 746.773193,79.054314 
	C747.065979,79.057281 747.356445,79.285011 748.127747,79.611130 
	C748.127747,86.691200 748.047302,93.966568 748.158813,101.238991 
	C748.222351,105.384682 748.416260,109.546013 748.876526,113.663971 
	C749.618958,120.306747 752.404663,123.107132 757.539734,122.831665 
	C763.311890,122.522034 767.821350,118.059631 767.942200,112.158310 
	C768.139709,102.508865 768.129944,92.855164 768.204956,83.203239 
	C768.213867,82.056953 768.206238,80.910545 768.206238,79.368393 
	C772.996216,79.368393 777.514893,79.368393 782.234009,79.368393 
	C782.234009,96.882088 782.234009,114.285683 782.234009,131.788422 
	C777.846191,131.788422 773.741272,131.788422 769.402954,131.788422 
	C769.267029,129.838303 769.146606,128.111755 768.971497,125.599945 
	C763.208252,131.437286 756.819092,133.704163 749.260681,133.072281 
	C742.828613,132.534546 736.241150,128.926575 735.774109,122.636887 
	C734.702271,108.202034 735.071594,93.660172 735.323364,79.080879 
z"/>
<path fill="#0A4F9E" opacity="1.000000" stroke="none" 
	d="
M1050.876831,218.947418 
	C1050.947021,219.101807 1051.017334,219.256195 1051.052856,220.129181 
	C1051.009766,222.166046 1050.813599,223.515396 1051.025757,224.797134 
	C1051.854004,229.800369 1049.953491,231.413239 1044.852661,231.112106 
	C1037.133789,230.656403 1029.367554,230.929489 1021.623657,231.042023 
	C1020.120850,231.063858 1018.627930,231.768127 1017.130493,232.157608 
	C1018.788452,235.643005 1019.713928,239.844574 1022.266479,242.455215 
	C1026.711060,247.000748 1033.211792,245.481171 1036.720825,240.192154 
	C1037.424438,239.131577 1039.166992,238.018539 1040.312866,238.130753 
	C1043.902466,238.482254 1047.436035,239.407654 1051.329834,240.177673 
	C1049.060547,248.117355 1043.807495,253.066406 1036.302979,254.592606 
	C1016.772400,258.564575 1003.163330,249.240402 1002.925171,228.961807 
	C1002.836792,221.437866 1004.162292,214.505798 1008.980652,208.492142 
	C1020.153137,194.548019 1044.924805,198.548187 1050.021973,215.939316 
	C1050.302002,217.404861 1050.589355,218.176147 1050.876831,218.947418 
M1022.646240,222.998123 
	C1027.740234,222.998123 1032.834229,222.998123 1037.914795,222.998123 
	C1037.979492,215.029144 1034.213135,210.864227 1027.549438,211.004486 
	C1021.319702,211.135620 1017.779053,215.586777 1018.278259,222.998032 
	C1019.401733,222.998032 1020.547119,222.998032 1022.646240,222.998123 
z"/>
<path fill="#094E9E" opacity="1.000000" stroke="none" 
	d="
M637.102600,232.109100 
	C638.851135,235.693100 639.855408,240.018295 642.518066,242.691986 
	C646.799683,246.991501 653.097168,245.385880 656.496155,240.266434 
	C657.165161,239.258759 658.628174,237.996323 659.588440,238.101257 
	C663.446777,238.522919 667.251526,239.435455 671.127563,240.176392 
	C668.118286,249.448547 661.664795,254.389008 651.908325,255.206085 
	C638.656921,256.315887 630.090881,252.098007 625.451660,242.178879 
	C620.369141,231.311737 622.394531,215.336838 629.690186,207.626907 
	C637.020996,199.879898 646.040771,198.341995 655.656616,201.354385 
	C664.782959,204.213409 669.893555,211.097580 671.183899,221.472717 
	C671.041260,222.993790 671.007629,223.654190 670.998840,224.314926 
	C670.910217,230.978012 670.911377,230.985580 664.450317,230.991180 
	C656.848877,230.997772 649.246521,230.929367 641.646667,231.038605 
	C640.127136,231.060425 638.617065,231.735321 637.102600,232.109100 
M640.172668,222.981674 
	C646.064209,222.981674 651.955688,222.981674 657.822205,222.981674 
	C657.907471,215.282684 654.187683,211.009644 647.906372,210.998016 
	C641.987427,210.987061 637.687988,215.298569 637.794983,221.307175 
	C637.805054,221.870453 638.795105,222.416290 640.172668,222.981674 
z"/>
<path fill="#0B50A0" opacity="1.000000" stroke="none" 
	d="
M1132.919434,203.941681 
	C1133.079102,205.182220 1133.238770,206.422760 1133.310303,206.978928 
	C1137.688965,204.871170 1141.853760,202.066696 1146.442139,200.813828 
	C1158.269653,197.584290 1167.501709,203.995087 1168.117188,216.222641 
	C1168.741577,228.628189 1168.255127,241.089661 1168.255127,253.803192 
	C1163.907227,253.803192 1159.480225,253.803192 1154.441895,253.803192 
	C1154.441895,246.980865 1154.484497,240.196030 1154.426392,233.412064 
	C1154.389404,229.085800 1154.292114,224.756119 1154.062988,220.436386 
	C1153.718872,213.951340 1151.383911,211.206543 1146.290649,211.024551 
	C1140.089355,210.802963 1135.764771,214.395950 1135.003418,220.424728 
	C1134.752930,222.406677 1134.552246,224.394882 1134.122192,226.448669 
	C1133.690186,226.390625 1133.468994,226.254501 1133.232544,226.154388 
	C1133.211792,226.145569 1133.026367,226.372437 1133.026123,226.490021 
	C1133.011963,233.619049 1132.759644,240.759964 1133.098267,247.872696 
	C1133.302734,252.165741 1131.724243,253.340714 1127.703247,253.073029 
	C1124.121094,252.834549 1120.807983,253.495956 1120.911865,247.932495 
	C1121.202881,232.353119 1121.052979,216.765518 1121.076904,201.181152 
	C1121.517212,201.131775 1121.957642,201.082397 1123.000732,201.347595 
	C1125.722534,201.504761 1127.841675,201.347366 1129.960815,201.189957 
	C1130.409302,201.140518 1130.857666,201.091095 1131.649048,201.428406 
	C1132.301147,202.523987 1132.610229,203.232834 1132.919434,203.941681 
z"/>
<path fill="#084E9E" opacity="1.000000" stroke="none" 
	d="
M815.139893,249.055618 
	C814.526367,248.973831 813.616272,248.588577 813.343384,248.855286 
	C808.441040,253.647110 802.631775,255.782471 795.780640,255.338074 
	C786.412781,254.730408 780.294495,248.978104 780.071655,239.538483 
	C779.773987,226.928299 779.998047,214.305786 779.998047,201.352005 
	C784.561707,201.352005 788.954346,201.352005 794.031494,201.352005 
	C794.031494,210.463684 794.029663,219.699539 794.032715,228.935379 
	C794.033508,231.262253 793.902222,233.601166 794.090454,235.913452 
	C794.456116,240.404495 796.301392,243.918259 801.148560,244.866608 
	C805.337402,245.686172 810.529297,243.032242 812.367188,239.190826 
	C812.927185,238.020264 813.159546,236.692947 814.009094,235.295105 
	C814.676208,223.832855 814.876221,212.512909 815.076172,201.192963 
	C818.727783,201.141556 822.379456,201.090134 826.499878,201.570557 
	C826.973633,217.078262 827.006775,232.054276 826.953918,247.029953 
	C826.945740,249.349548 827.919678,252.608582 824.146179,252.861557 
	C820.683044,253.093704 816.323608,254.568085 815.139893,249.055618 
z"/>
<path fill="#054EA1" opacity="1.000000" stroke="none" 
	d="
M810.064697,85.928658 
	C815.659668,80.715477 821.877563,77.019066 829.926392,78.016075 
	C837.467651,78.950211 842.845398,82.566948 844.532959,90.994812 
	C844.192566,103.103508 843.930969,114.528816 844.089905,125.948273 
	C844.152710,130.460861 842.012268,131.142639 838.273071,131.051025 
	C834.690979,130.963272 831.731812,131.121948 831.914978,125.998932 
	C832.222656,117.392326 832.052795,108.766052 831.951233,100.149605 
	C831.931030,98.434509 831.315186,96.726440 830.973877,95.015137 
	C829.372620,91.676788 827.517334,88.888977 823.145569,88.771317 
	C817.944153,88.631332 814.488281,90.917374 811.719360,95.905670 
	C810.814026,98.126114 810.095398,99.827873 810.064514,101.542023 
	C809.932983,108.844322 810.004761,116.150276 810.002502,123.454903 
	C810.000183,130.895248 809.994263,131.096619 801.477661,130.843414 
	C795.816101,130.675064 798.156189,125.963089 798.100464,123.203621 
	C797.855835,111.089516 797.993896,98.967667 797.994690,86.848625 
	C797.995178,79.693077 798.603394,79.470634 805.562561,79.884659 
	C810.116882,80.155632 807.936401,84.430977 810.064697,85.928658 
z"/>
<path fill="#0A4F9D" opacity="1.000000" stroke="none" 
	d="
M716.087646,99.050522 
	C716.087891,110.166801 716.087891,120.789360 716.087891,131.721680 
	C711.426025,131.721680 707.041199,131.721680 702.156738,131.721680 
	C702.156738,117.888855 702.156738,104.173828 702.156738,90.263733 
	C699.432983,90.075249 697.183777,89.919601 694.754028,89.751465 
	C694.754028,86.119850 694.754028,82.700134 694.754028,79.001465 
	C697.165771,79.001465 699.296631,79.001465 701.764893,79.001465 
	C701.999084,76.008263 702.006104,73.218788 702.468811,70.507080 
	C703.890015,62.178524 708.511902,58.294502 717.090210,57.977631 
	C718.086914,57.940815 719.086609,57.957561 720.084290,57.978256 
	C730.318420,58.190544 730.545532,58.476173 728.650696,68.334221 
	C724.919067,68.994377 720.846863,68.863411 717.834900,70.586212 
	C716.187317,71.528595 716.332520,75.605324 715.509521,78.910400 
	C719.736084,78.910400 723.147766,78.910400 726.787842,78.910400 
	C726.787842,82.655197 726.787842,85.932556 726.787842,89.749725 
	C723.521362,89.749725 720.134033,89.749725 716.087402,89.749725 
	C716.087402,93.029205 716.087402,95.793007 716.087646,99.050522 
z"/>
<path fill="#0D51A0" opacity="1.000000" stroke="none" 
	d="
M531.075806,193.533646 
	C532.604980,191.601776 533.962158,189.848267 535.700989,188.646988 
	C538.549805,186.678818 541.646667,185.069595 545.303528,182.917923 
	C545.303528,189.067474 545.303528,194.729141 545.303528,200.907990 
	C548.777954,200.907990 551.675781,200.907990 554.798462,200.907990 
	C554.798462,204.697235 554.798462,207.975357 554.798462,211.813904 
	C552.059814,211.813904 549.173950,211.813904 546.047363,211.813904 
	C546.047363,221.919586 545.931580,231.475494 546.223938,241.018906 
	C546.253601,241.988556 548.634705,243.328857 550.117249,243.676987 
	C551.398499,243.977859 552.953796,243.111526 554.936340,242.627197 
	C555.413025,246.295898 555.852661,249.679398 556.489502,254.581116 
	C550.479919,254.679581 544.941406,255.430161 539.625549,254.654709 
	C535.140503,254.000458 532.069885,250.435974 531.999939,245.526535 
	C531.844177,234.592590 531.951294,223.654892 531.951294,212.493500 
	C529.106506,212.195358 527.359131,212.012207 525.288879,211.795242 
	C525.288879,208.445953 525.288879,205.041046 525.288879,201.266571 
	C526.946228,201.116730 528.690735,200.959030 531.075256,200.743454 
	C531.075256,198.480270 531.075256,196.220169 531.075806,193.533646 
z"/>
<path fill="#074EA0" opacity="1.000000" stroke="none" 
	d="
M854.814026,205.934982 
	C855.563477,205.751892 856.646057,205.824081 857.011658,205.346893 
	C861.400513,199.619110 867.993408,197.976334 876.025513,203.093445 
	C874.663147,206.839584 873.278198,210.647858 872.120789,213.830307 
	C868.385376,213.622330 864.860474,212.653595 861.878967,213.531082 
	C859.884766,214.117966 858.662903,217.328796 856.733276,219.946472 
	C856.307800,221.189590 856.244446,221.851669 856.181030,222.513733 
	C856.181030,222.513733 856.321655,222.809448 855.887085,223.191376 
	C855.296753,232.021927 855.029419,240.470566 855.031189,248.919128 
	C855.032104,253.311752 852.178650,253.076477 849.272949,252.989319 
	C846.404663,252.903290 842.961243,253.847244 842.984619,248.973114 
	C843.054016,234.514954 842.977539,220.056076 843.066040,205.598129 
	C843.072998,204.464844 843.595215,202.794495 844.427490,202.301743 
	C847.703247,200.362122 853.420166,202.512054 854.814026,205.934982 
z"/>
<path fill="#084E9E" opacity="1.000000" stroke="none" 
	d="
M1355.932129,254.069641 
	C1352.818481,254.070541 1350.189575,254.070541 1347.286621,254.070541 
	C1347.286621,236.354340 1347.286621,218.984802 1347.286621,201.312073 
	C1351.705566,201.312073 1356.090210,201.312073 1360.758057,201.312073 
	C1360.758057,218.749344 1360.758057,236.116241 1360.758057,253.824539 
	C1359.289795,253.907120 1357.853271,253.987915 1355.932129,254.069641 
z"/>
<path fill="#1A4980" opacity="1.000000" stroke="none" 
	d="
M466.807678,21.615360 
	C464.463837,21.702335 462.183319,21.058889 459.902649,21.058128 
	C316.240692,21.010157 172.578735,21.006813 28.916819,21.087410 
	C26.748207,21.088627 24.580212,22.188923 22.085510,22.872850 
	C22.165026,21.980488 22.329933,20.433084 23.031916,20.130123 
	C24.158298,19.644005 25.640125,19.972229 26.971741,19.972218 
	C171.673233,19.971041 316.374725,19.966631 461.076172,20.021921 
	C463.007904,20.022659 464.939331,20.780428 466.807678,21.615360 
z"/>
<path fill="#1B497C" opacity="1.000000" stroke="none" 
	d="
M22.996056,314.001221 
	C24.934183,314.329865 26.872223,314.945618 28.810452,314.946198 
	C172.571671,314.990570 316.332886,314.989685 460.094116,314.949738 
	C462.045776,314.949219 463.997284,314.406342 466.344055,314.035828 
	C466.311371,314.630981 465.965546,315.803711 465.440399,315.890411 
	C463.817108,316.158386 462.125549,316.025513 460.460510,316.025543 
	C316.070618,316.028229 171.680695,316.033600 27.290812,315.977844 
	C25.361687,315.977112 23.432856,315.200989 21.831604,314.398987 
	C22.438190,314.004364 22.717102,314.001007 22.996056,314.001221 
z"/>
<path fill="#054EA1" opacity="1.000000" stroke="none" 
	d="
M691.943970,112.631081 
	C683.624268,112.699867 675.304626,112.768654 666.508423,112.313667 
	C666.015625,109.478203 666.219177,107.139061 665.934753,104.860840 
	C665.427673,100.799660 667.186890,99.761536 670.997131,99.906952 
	C678.253296,100.183907 685.525879,100.030792 692.791687,100.056244 
	C692.833801,100.494545 692.875916,100.932846 692.605469,102.008888 
	C692.176636,105.974777 692.060303,109.302933 691.943970,112.631081 
z"/>
<path fill="#054EA1" opacity="1.000000" stroke="none" 
	d="
M1348.066162,181.393524 
	C1351.726562,181.319855 1355.386719,181.246170 1359.510986,181.696411 
	C1359.989624,183.880524 1359.807617,185.570724 1360.055664,187.195297 
	C1360.821411,192.211258 1358.517822,193.347122 1353.892456,193.119324 
	C1349.476929,192.901871 1347.391724,191.460526 1347.957764,186.867859 
	C1348.179810,185.065994 1348.040771,183.219620 1348.066162,181.393524 
z"/>
<path fill="#164B88" opacity="1.000000" stroke="none" 
	d="
M1013.865112,125.535522 
	C1015.530579,128.396500 1016.787231,132.142792 1021.903198,131.013245 
	C1024.510620,130.437576 1026.052246,129.574997 1026.041016,126.545723 
	C1025.964355,105.781815 1025.978271,85.017448 1026.015503,64.253311 
	C1026.026367,58.214874 1021.520386,60.449749 1018.473267,60.001869 
	C1015.023010,59.494736 1013.819946,60.945152 1013.919678,64.457809 
	C1014.088806,70.415169 1013.784546,76.385971 1013.408936,82.663406 
	C1013.138550,75.179039 1013.138550,67.382378 1013.138550,59.282425 
	C1017.639954,59.282425 1022.035461,59.282425 1026.729248,59.282425 
	C1026.729248,83.332993 1026.729248,107.383400 1026.729248,131.734024 
	C1022.681396,131.734024 1018.611389,131.734024 1013.906006,131.734024 
	C1013.906006,129.823318 1013.906006,127.902077 1013.865112,125.535522 
z"/>
<path fill="#1A4980" opacity="1.000000" stroke="none" 
	d="
M713.578125,181.299133 
	C713.666077,185.327866 713.077271,189.276047 713.054565,193.227463 
	C712.952209,211.040741 713.190186,228.857895 712.898132,246.666977 
	C712.813354,251.838394 714.551086,253.183304 719.494507,253.095963 
	C734.972778,252.822556 750.458862,252.996490 766.401489,253.003632 
	C766.402588,253.355026 765.945068,254.000061 765.485657,254.001389 
	C747.854919,254.052521 730.224121,254.044693 712.291321,254.044693 
	C712.172546,252.540146 711.985474,251.267792 711.984436,249.995285 
	C711.967163,228.509537 711.950195,207.023697 712.024719,185.538193 
	C712.029663,184.097534 712.765930,182.659393 713.578125,181.299133 
z"/>
<path fill="#1A4980" opacity="1.000000" stroke="none" 
	d="
M895.035950,127.503662 
	C896.334045,132.516068 900.663513,131.104874 904.132629,130.865417 
	C907.869751,130.607452 906.959351,127.373047 906.964783,125.045227 
	C907.011353,104.952873 906.806458,84.857582 907.110474,64.769745 
	C907.192017,59.384777 904.218201,59.983097 900.836487,59.948994 
	C897.526245,59.915623 894.659912,59.552208 894.896667,64.601814 
	C895.205444,71.189575 894.682861,77.816299 894.177002,84.660690 
	C893.835938,76.440659 893.835938,67.986198 893.835938,59.259090 
	C898.704224,59.259090 903.098999,59.259090 907.767456,59.259090 
	C907.767456,83.382172 907.767456,107.422127 907.767456,131.747589 
	C903.627319,131.747589 899.551636,131.747589 894.958679,131.747589 
	C894.958679,130.461182 894.958679,129.200684 895.035950,127.503662 
z"/>
<path fill="#164B88" opacity="1.000000" stroke="none" 
	d="
M810.060181,85.481857 
	C807.936401,84.430977 810.116882,80.155632 805.562561,79.884659 
	C798.603394,79.470634 797.995178,79.693077 797.994690,86.848625 
	C797.993896,98.967667 797.855835,111.089516 798.100464,123.203621 
	C798.156189,125.963089 795.816101,130.675064 801.477661,130.843414 
	C809.994263,131.096619 810.000183,130.895248 810.002502,123.454903 
	C810.004761,116.150276 809.932983,108.844322 810.064514,101.542023 
	C810.095398,99.827873 810.814026,98.126114 811.548157,96.209900 
	C811.880005,107.865799 811.880005,119.730453 811.880005,131.809967 
	C806.203247,131.809967 801.816528,131.809967 797.203186,131.809967 
	C797.203186,114.237091 797.203186,96.886902 797.203186,79.255997 
	C801.332581,79.255997 805.392578,79.255997 810.055725,79.255997 
	C810.055725,81.194016 810.055725,83.114532 810.060181,85.481857 
z"/>
<path fill="#1A4980" opacity="1.000000" stroke="none" 
	d="
M854.888428,205.505630 
	C853.420166,202.512054 847.703247,200.362122 844.427490,202.301743 
	C843.595215,202.794495 843.072998,204.464844 843.066040,205.598129 
	C842.977539,220.056076 843.054016,234.514954 842.984619,248.973114 
	C842.961243,253.847244 846.404663,252.903290 849.272949,252.989319 
	C852.178650,253.076477 855.032104,253.311752 855.031189,248.919128 
	C855.029419,240.470566 855.296753,232.021927 855.775085,223.310852 
	C856.097717,233.175766 856.097717,243.303162 856.097717,253.750107 
	C851.367004,253.750107 846.966858,253.750107 842.222168,253.750107 
	C842.222168,236.432358 842.222168,219.051636 842.222168,201.339691 
	C846.217651,201.339691 850.283508,201.339691 854.793945,201.339691 
	C854.848938,202.557098 854.905884,203.816696 854.888428,205.505630 
z"/>
<path fill="#164B88" opacity="1.000000" stroke="none" 
	d="
M598.005310,215.427429 
	C598.661011,216.717056 599.864136,218.425659 599.900696,220.158875 
	C600.093445,229.293243 600.217712,238.441605 599.902771,247.569122 
	C599.729675,252.582733 602.840027,252.936020 606.249939,252.916428 
	C609.571960,252.897324 612.214844,252.178467 612.103027,247.564575 
	C611.862061,237.615005 612.187683,227.651733 612.529053,217.367523 
	C612.776611,229.135559 612.776611,241.230133 612.776611,253.702408 
	C608.454224,253.702408 604.072205,253.702408 599.468384,253.702408 
	C598.988586,241.213501 598.501526,228.535645 598.005310,215.427429 
z"/>
<path fill="#1A4980" opacity="1.000000" stroke="none" 
	d="
M1120.651245,201.288116 
	C1121.052979,216.765518 1121.202881,232.353119 1120.911865,247.932495 
	C1120.807983,253.495956 1124.121094,252.834549 1127.703247,253.073029 
	C1131.724243,253.340714 1133.302734,252.165741 1133.098267,247.872696 
	C1132.759644,240.759964 1133.011963,233.619049 1133.026123,226.490021 
	C1133.026367,226.372437 1133.211792,226.145569 1133.232544,226.154388 
	C1133.468994,226.254501 1133.690186,226.390625 1133.970947,226.818604 
	C1134.026611,235.890335 1134.026611,244.660553 1134.026611,253.750519 
	C1129.523193,253.750519 1125.112915,253.750519 1120.225586,253.750519 
	C1120.225586,236.404495 1120.225586,218.899780 1120.651245,201.288116 
z"/>
<path fill="#164B88" opacity="1.000000" stroke="none" 
	d="
M830.947266,95.481415 
	C831.315186,96.726440 831.931030,98.434509 831.951233,100.149605 
	C832.052795,108.766052 832.222656,117.392326 831.914978,125.998932 
	C831.731812,131.121948 834.690979,130.963272 838.273071,131.051025 
	C842.012268,131.142639 844.152710,130.460861 844.089905,125.948273 
	C843.930969,114.528816 844.192566,103.103508 844.535645,91.353973 
	C844.785583,104.459999 844.785583,117.892593 844.785583,131.680984 
	C840.552673,131.680984 836.013306,131.680984 830.920532,131.680984 
	C830.920532,119.751099 830.920532,107.849388 830.947266,95.481415 
z"/>
<path fill="#1A4980" opacity="1.000000" stroke="none" 
	d="
M956.950500,203.508392 
	C953.317749,203.378021 949.769470,202.711853 946.192017,202.460922 
	C945.901001,202.440491 945.068726,205.257889 945.064636,206.758209 
	C945.003784,229.127350 945.040161,251.496750 945.078125,274.319519 
	C944.733948,274.175079 944.044189,273.577911 944.042786,272.979187 
	C943.988464,249.187134 943.996521,225.394943 943.996521,201.018524 
	C947.862732,201.018524 951.473145,200.912109 955.066528,201.111649 
	C955.754456,201.149826 956.375488,202.392792 956.950500,203.508392 
z"/>
<path fill="#1A4980" opacity="1.000000" stroke="none" 
	d="
M815.067383,249.493958 
	C816.323608,254.568085 820.683044,253.093704 824.146179,252.861557 
	C827.919678,252.608582 826.945740,249.349548 826.953918,247.029953 
	C827.006775,232.054276 826.973633,217.078262 826.949524,201.646454 
	C827.286194,201.624573 827.951233,202.057388 827.952942,202.492874 
	C828.016235,218.224350 828.017761,233.956085 828.027588,249.687775 
	C828.028381,250.981049 828.027710,252.274338 828.027710,253.808868 
	C823.576050,253.808868 819.520386,253.808868 814.994812,253.808868 
	C814.994812,252.457642 814.994812,251.194977 815.067383,249.493958 
z"/>
<path fill="#1A4980" opacity="1.000000" stroke="none" 
	d="
M727.533508,194.077209 
	C728.757935,193.742722 730.439392,193.059921 732.129089,193.039017 
	C740.921448,192.930237 749.715942,193.001251 758.509644,192.987442 
	C765.028442,192.977203 765.029053,192.962051 765.008057,186.225952 
	C765.003906,184.898605 764.992859,183.571289 764.978088,181.809769 
	C765.562378,185.365860 766.153503,189.356140 766.846619,194.034241 
	C753.286987,194.034241 740.640686,194.034241 727.533508,194.077209 
z"/>
<path fill="#1A4980" opacity="1.000000" stroke="none" 
	d="
M1226.163818,232.441040 
	C1225.757202,231.217285 1225.053833,229.536148 1225.041382,227.849884 
	C1224.947021,215.069077 1225.036987,202.286911 1224.944336,189.506058 
	C1224.926636,187.059097 1224.355957,184.616135 1224.025146,181.773361 
	C1224.680176,182.643921 1225.918823,183.905609 1225.934204,185.182053 
	C1226.122681,200.780533 1226.131592,216.381180 1226.163818,232.441040 
z"/>
<path fill="#1A4980" opacity="1.000000" stroke="none" 
	d="
M767.377563,249.829056 
	C766.739380,247.987228 766.445007,245.904434 765.989563,242.681488 
	C753.613953,242.681488 741.135376,242.681488 728.347351,242.409363 
	C741.128113,242.137238 754.218323,242.137238 767.721375,242.137238 
	C767.721375,244.746628 767.721375,247.167358 767.377563,249.829056 
z"/>
<path fill="#1A4980" opacity="1.000000" stroke="none" 
	d="
M1017.586182,232.118179 
	C1018.627930,231.768127 1020.120850,231.063858 1021.623657,231.042023 
	C1029.367554,230.929489 1037.133789,230.656403 1044.852661,231.112106 
	C1049.953491,231.413239 1051.854004,229.800369 1051.025757,224.797134 
	C1050.813599,223.515396 1051.009766,222.166046 1051.043579,220.383453 
	C1051.554565,223.750549 1052.040161,227.581970 1052.610107,232.078735 
	C1040.551147,232.078735 1029.296509,232.078735 1017.586182,232.118179 
z"/>
<path fill="#1A4980" opacity="1.000000" stroke="none" 
	d="
M637.561096,232.076630 
	C638.617065,231.735321 640.127136,231.060425 641.646667,231.038605 
	C649.246521,230.929367 656.848877,230.997772 664.450317,230.991180 
	C670.911377,230.985580 670.910217,230.978012 670.998840,224.314926 
	C671.007629,223.654190 671.041260,222.993790 671.107178,221.842087 
	C671.559143,224.701324 671.967102,228.051712 672.453308,232.044159 
	C660.498352,232.044159 649.258972,232.044159 637.561096,232.076630 
z"/>
<path fill="#255A94" opacity="1.000000" stroke="none" 
	d="
M692.684326,99.634995 
	C685.525879,100.030792 678.253296,100.183907 670.997131,99.906952 
	C667.186890,99.761536 665.427673,100.799660 665.934753,104.860840 
	C666.219177,107.139061 666.015625,109.478203 666.050659,112.233780 
	C665.539368,108.302811 665.009338,103.927948 664.438171,99.213737 
	C674.394470,99.213737 683.485718,99.213737 692.684326,99.634995 
z"/>
<path fill="#255A94" opacity="1.000000" stroke="none" 
	d="
M1347.674072,181.517517 
	C1348.040771,183.219620 1348.179810,185.065994 1347.957764,186.867859 
	C1347.391724,191.460526 1349.476929,192.901871 1353.892456,193.119324 
	C1358.517822,193.347122 1360.821411,192.211258 1360.055664,187.195297 
	C1359.807617,185.570724 1359.989624,183.880524 1359.960693,181.779968 
	C1360.471191,185.360870 1360.995728,189.382156 1361.569458,193.779663 
	C1356.365234,193.779663 1351.986572,193.779663 1347.282104,193.779663 
	C1347.282104,189.736252 1347.282104,185.688889 1347.674072,181.517517 
z"/>
<path fill="#1A4980" opacity="1.000000" stroke="none" 
	d="
M814.651123,201.299042 
	C814.876221,212.512909 814.676208,223.832855 814.213989,234.993561 
	C814.043152,223.691269 814.134583,212.548187 814.651123,201.299042 
z"/>
<path fill="#1A4980" opacity="1.000000" stroke="none" 
	d="
M955.462463,274.858032 
	C955.685913,272.817688 956.791199,270.890015 956.903015,268.906342 
	C957.245178,262.835297 957.205688,256.742767 957.586548,250.349197 
	C957.915161,257.400146 958.049927,264.761719 957.933105,272.119263 
	C957.917969,273.071777 956.602905,274.003662 955.462463,274.858032 
z"/>
<path fill="#255A94" opacity="1.000000" stroke="none" 
	d="
M692.323853,112.494583 
	C692.060303,109.302933 692.176636,105.974777 692.541748,102.334633 
	C692.761536,105.467789 692.732666,108.912933 692.323853,112.494583 
z"/>
<path fill="#1A4980" opacity="1.000000" stroke="none" 
	d="
M1129.533936,201.113190 
	C1127.841675,201.347366 1125.722534,201.504761 1123.326050,201.424713 
	C1125.068115,201.136978 1127.087646,201.086685 1129.533936,201.113190 
z"/>
<path fill="#164B88" opacity="1.000000" stroke="none" 
	d="
M612.221558,214.635376 
	C611.794739,213.539871 611.398315,212.114441 611.007812,210.328705 
	C611.426514,211.414078 611.839233,212.859772 612.221558,214.635376 
z"/>
<path fill="#1A4980" opacity="1.000000" stroke="none" 
	d="
M22.995930,313.700470 
	C22.717102,314.001007 22.438190,314.004364 21.950226,314.017578 
	C21.649441,313.266205 21.557755,312.508423 21.614660,311.392151 
	C22.174101,311.822357 22.584951,312.611023 22.995930,313.700470 
z"/>
<path fill="#1A4980" opacity="1.000000" stroke="none" 
	d="
M947.443726,274.856140 
	C948.507812,274.628845 949.974854,274.482513 951.688599,274.557007 
	C950.572510,274.830902 949.209534,274.884033 947.443726,274.856140 
z"/>
<path fill="#1A4980" opacity="1.000000" stroke="none" 
	d="
M1050.932129,218.620605 
	C1050.589355,218.176147 1050.302002,217.404861 1050.013428,216.305161 
	C1050.337402,216.749100 1050.662354,217.521454 1050.932129,218.620605 
z"/>
<path fill="#1A4980" opacity="1.000000" stroke="none" 
	d="
M1133.002197,203.599182 
	C1132.610229,203.232834 1132.301147,202.523987 1131.981201,201.504425 
	C1132.342041,201.881348 1132.713623,202.569016 1133.002197,203.599182 
z"/>
<path fill="#1A4980" opacity="1.000000" stroke="none" 
	d="
M856.415283,222.269440 
	C856.244446,221.851669 856.307800,221.189590 856.605469,220.286621 
	C856.776367,220.705551 856.712952,221.365341 856.415283,222.269440 
z"/>
<path fill="#164B88" opacity="1.000000" stroke="none" 
	d="
M596.862976,213.351349 
	C597.164429,213.505844 597.552429,213.943405 597.970825,214.694092 
	C597.650635,214.549622 597.300049,214.092026 596.862976,213.351349 
z"/>
<path fill="#E9E928" opacity="1.000000" stroke="none" 
	d="
M158.899368,163.118683 
	C159.790497,163.405197 160.322342,163.683105 160.854172,163.961014 
	C160.579285,164.345993 160.390091,164.914047 160.016785,165.088806 
	C153.092377,168.330704 151.987854,173.368561 156.091064,180.057678 
	C155.713074,180.257858 155.335098,180.458023 154.957123,180.658203 
	C153.934174,180.063400 152.661209,179.683609 151.932251,178.835968 
	C149.035156,175.467148 146.169556,174.155869 142.472015,177.832642 
	C141.582062,178.717606 139.935944,178.842163 138.439026,179.388947 
	C138.895599,175.742691 140.388412,172.223053 139.347656,169.784958 
	C138.292938,167.314209 134.733994,165.912460 132.079391,163.311279 
	C140.395660,164.805527 145.711868,162.406799 146.469070,153.040329 
	C148.712814,159.198654 150.350861,165.336945 158.899368,163.118683 
z"/>
<path fill="#E9E928" opacity="1.000000" stroke="none" 
	d="
M284.305420,264.501648 
	C283.934296,264.321503 283.790192,264.152100 283.817596,264.017670 
	C284.467621,260.827881 286.305359,257.276825 285.457916,254.562363 
	C284.678955,252.067474 281.012390,250.474121 277.638794,247.669571 
	C284.891174,247.769653 291.991821,248.617477 291.630371,238.095169 
	C294.713562,245.373581 298.370544,250.205139 307.218353,247.573914 
	C299.754364,251.939423 296.953552,256.939850 300.886383,264.675354 
	C298.110077,262.836182 295.333801,260.997040 292.506622,259.124207 
	C289.799011,260.977814 287.205658,262.753235 284.305420,264.501648 
z"/>
<path fill="#E9E928" opacity="1.000000" stroke="none" 
	d="
M186.114868,83.961395 
	C184.244843,82.587303 182.673767,81.419907 181.102676,80.252518 
	C188.058624,80.150803 194.236771,79.313972 195.378326,69.654869 
	C197.073715,78.132484 201.473236,81.171494 209.392487,78.735420 
	C209.421249,79.197205 209.449997,79.658989 209.478745,80.120773 
	C207.158875,81.969589 203.846741,83.384171 202.794830,85.787872 
	C201.716766,88.251328 202.850784,91.682831 203.110748,96.397789 
	C197.070862,89.532059 192.017670,91.784271 187.439606,96.636902 
	C185.176697,92.202957 192.454620,87.778709 186.114868,83.961395 
z"/>
<path fill="#E9E928" opacity="1.000000" stroke="none" 
	d="
M299.280090,79.171417 
	C302.011139,79.180489 304.311890,79.180489 306.612671,79.180489 
	C300.033783,83.569756 296.943939,88.729851 301.864014,96.824348 
	C296.145355,91.891449 290.744202,89.389923 284.035645,94.792458 
	C284.632263,91.860840 286.400391,88.484917 285.503357,86.119766 
	C284.564087,83.643150 281.065125,82.137321 278.576019,79.592155 
	C285.572601,80.127663 291.489807,79.350906 291.650604,70.307663 
	C294.451782,73.752991 296.650787,76.457672 299.280090,79.171417 
z"/>
<path fill="#E9E928" opacity="1.000000" stroke="none" 
	d="
M237.148804,269.815308 
	C236.315430,267.907562 235.567535,266.209351 234.372192,264.928833 
	C233.075806,263.540070 231.362656,262.540314 229.799530,260.735138 
	C236.343735,261.261902 241.767670,260.055542 243.933960,252.443878 
	C247.267807,259.309052 247.267807,259.309052 258.571289,260.729431 
	C255.636322,263.275787 251.893036,265.036987 250.960022,267.760834 
	C250.069412,270.360870 252.106064,273.963593 252.746811,278.065460 
	C246.867737,271.415771 241.115875,271.578308 234.970901,277.213867 
	C235.659668,274.878845 236.348450,272.543823 237.148804,269.815308 
z"/>
<path fill="#E9E928" opacity="1.000000" stroke="none" 
	d="
M251.395554,72.389404 
	C251.579758,76.072151 252.019135,79.503387 252.577148,83.861145 
	C246.874023,77.741119 241.131760,77.055367 235.100006,83.244476 
	C235.909927,80.013100 238.053406,76.334671 237.161392,73.673836 
	C236.236328,70.914360 232.371109,69.140533 228.337189,65.692184 
	C237.366898,67.313232 243.114471,65.745407 243.696594,55.960262 
	C245.630188,64.213333 249.623199,68.508713 258.458099,65.484436 
	C258.455322,65.985992 258.452515,66.487556 258.449738,66.989113 
	C256.183411,68.705376 253.917068,70.421638 251.395554,72.389404 
z"/>
<path fill="#EDEC26" opacity="1.000000" stroke="none" 
	d="
M186.895752,263.901062 
	C187.561615,260.848969 189.385681,257.428162 188.564697,254.849426 
	C187.758286,252.316452 184.264969,250.638916 181.688370,247.824692 
	C189.668442,249.616409 193.633270,245.479309 196.105408,238.186996 
	C196.792984,247.016815 201.609955,248.882477 209.899277,247.070724 
	C204.788467,252.059021 199.067810,255.607407 204.286743,262.739105 
	C203.909164,263.006622 203.531586,263.274139 203.153992,263.541656 
	C200.582062,262.147186 198.010132,260.752716 195.352646,259.311859 
	C192.789093,260.910797 190.126266,262.571625 187.155884,264.051819 
	C186.848343,263.871155 186.895752,263.901062 186.895752,263.901062 
z"/>
<path fill="#EDEC26" opacity="1.000000" stroke="none" 
	d="
M168.767487,228.207718 
	C168.382095,228.651276 167.753494,229.000061 167.626221,228.867523 
	C162.314240,223.335190 156.991684,222.979248 151.067123,229.358383 
	C154.348557,222.215988 153.803146,216.619370 145.670517,212.997620 
	C150.033981,212.007111 153.645615,212.174240 155.649155,210.460892 
	C157.742905,208.670410 158.289474,205.070679 159.995895,201.151276 
	C161.560944,208.175659 163.690674,214.003738 172.715317,212.809311 
	C165.535660,217.017593 165.799988,222.178772 168.767487,228.207718 
z"/>
<path fill="#EDEC26" opacity="1.000000" stroke="none" 
	d="
M340.181519,154.824936 
	C341.092743,155.072250 342.498688,155.575195 342.562042,156.211731 
	C343.162140,162.241913 346.637573,163.930222 352.122314,163.019867 
	C353.067474,162.862991 354.079224,163.107422 356.479553,163.251907 
	C352.945587,165.966370 350.310059,167.990753 347.415527,170.214066 
	C348.049225,172.960663 348.715851,175.850052 349.656036,179.925201 
	C345.948395,177.918121 343.438568,175.520966 340.900604,175.490799 
	C338.571899,175.463120 336.212830,177.987915 332.914734,179.425919 
	C336.708038,171.678833 333.403015,167.111115 326.404602,163.679688 
	C333.284271,163.523193 339.623199,163.735535 340.181519,154.824936 
z"/>
<path fill="#EDEC26" opacity="1.000000" stroke="none" 
	d="
M328.908417,202.927109 
	C329.340820,204.163757 329.865479,205.065536 330.024506,206.027710 
	C330.829102,210.896652 333.690430,212.745682 338.461029,212.079514 
	C339.589478,211.921936 340.758667,212.056168 342.583954,212.421783 
	C335.764282,216.238358 332.350220,221.072433 336.418213,228.888474 
	C333.728149,227.225723 331.155975,224.537781 328.312347,224.210846 
	C325.849945,223.927719 323.079620,226.323074 319.590698,227.143326 
	C324.379547,220.293259 319.707275,216.734146 315.629883,213.353241 
	C316.158295,212.640930 316.382385,212.155746 316.520355,212.179092 
	C323.827942,213.417099 326.107086,208.752563 327.457764,202.947388 
	C327.519745,202.681061 327.876038,202.407578 328.157776,202.297531 
	C328.316315,202.235596 328.603058,202.501740 328.908417,202.927109 
z"/>
<path fill="#EDEC26" opacity="1.000000" stroke="none" 
	d="
M167.861115,129.402344 
	C166.931854,129.850677 165.716782,130.364136 165.389999,130.024063 
	C160.818176,125.266060 156.981018,127.576591 153.163727,131.073441 
	C152.753555,131.449188 152.041229,131.495132 151.105118,131.820602 
	C151.832520,128.277374 153.693466,124.695564 152.790085,122.061981 
	C151.896881,119.458069 148.211731,117.811859 145.447800,115.015358 
	C154.185486,117.120743 158.478989,113.324020 160.265137,105.235291 
	C161.339493,108.269432 162.413834,111.303566 163.589188,114.622932 
	C166.556351,114.885834 169.723618,115.166466 172.890900,115.447090 
	C173.122177,115.791855 173.353455,116.136620 173.584732,116.481377 
	C168.138794,119.335068 164.111191,122.720650 167.861115,129.402344 
z"/>
<path fill="#EDEC26" opacity="1.000000" stroke="none" 
	d="
M330.858490,111.264954 
	C332.304138,112.741356 333.486725,114.278038 335.020569,114.819267 
	C336.889984,115.478905 339.054718,115.301506 341.540497,116.079567 
	C334.322113,119.506424 333.354095,124.510864 337.143524,131.613571 
	C330.811005,126.440857 325.236389,125.248062 320.110199,132.699234 
	C319.865936,132.303757 319.621674,131.908264 319.377441,131.512787 
	C320.216614,128.347488 321.055786,125.182205 321.939392,121.849365 
	C319.409973,119.876221 316.949036,117.956474 314.488068,116.036736 
	C323.108032,117.166481 326.975769,112.610580 328.539703,104.919800 
	C329.276825,106.907867 330.013977,108.895927 330.858490,111.264954 
z"/>
<path fill="#EDEC26" opacity="1.000000" stroke="none" 
	d="
M186.825989,263.854248 
	C186.791046,263.940430 186.778442,264.043488 186.830780,264.023804 
	C186.895752,263.901062 186.848343,263.871155 186.825989,263.854248 
z"/>
<path fill="#F9FDFE" opacity="1.000000" stroke="none" 
	d="
M1091.188721,122.016159 
	C1085.380371,119.438011 1082.955322,114.911430 1082.993042,109.205811 
	C1083.023315,104.630440 1083.079590,99.876801 1084.308228,95.537460 
	C1085.560547,91.114311 1089.282104,88.752884 1094.226562,88.783012 
	C1099.186890,88.813240 1102.369873,91.287132 1104.100098,95.695595 
	C1106.617432,102.109894 1106.703979,108.687965 1104.395874,115.144501 
	C1102.211792,121.254433 1097.565308,123.606079 1091.188721,122.016159 
z"/>
<path fill="#F8FDFD" opacity="1.000000" stroke="none" 
	d="
M978.485168,240.317184 
	C971.938354,247.186874 964.002136,246.257812 960.138184,238.200317 
	C957.273193,232.226105 956.234497,225.986435 958.934570,219.451309 
	C961.377869,213.537857 964.666199,210.856552 970.289062,211.008820 
	C975.326782,211.145218 979.220642,214.220642 980.420715,220.185547 
	C981.761719,226.850861 982.183289,233.656998 978.485168,240.317184 
z"/>
<path fill="#F8FDFD" opacity="1.000000" stroke="none" 
	d="
M892.958313,113.573792 
	C889.016357,121.760239 884.822693,124.164047 878.708679,122.013176 
	C873.917603,120.327690 871.698059,116.415459 871.129700,111.801048 
	C870.626648,107.716545 870.703674,103.490753 871.096863,99.382088 
	C871.683960,93.246674 876.222168,88.968178 881.660828,88.799072 
	C887.736023,88.610168 892.148010,92.165619 892.972595,98.899391 
	C893.546692,103.588013 893.037354,108.409332 892.958313,113.573792 
z"/>
<path fill="#F9FDFE" opacity="1.000000" stroke="none" 
	d="
M1000.266479,122.777206 
	C993.363037,120.596443 990.228699,116.934479 990.077576,110.072510 
	C989.972900,105.320427 990.031189,100.365578 991.254761,95.835732 
	C992.665100,90.614120 997.073608,88.476471 1002.470520,88.836815 
	C1007.783875,89.191574 1010.863831,92.721329 1011.723633,97.208099 
	C1012.667603,102.134850 1012.706604,107.455399 1011.968811,112.430702 
	C1010.947937,119.314972 1007.823303,121.650177 1000.266479,122.777206 
z"/>
<path fill="#F9FDFE" opacity="1.000000" stroke="none" 
	d="
M1401.547852,243.952240 
	C1392.336304,243.948410 1387.194580,239.193893 1386.990601,230.462372 
	C1386.910889,227.058777 1387.041260,223.469910 1388.032593,220.260941 
	C1389.835571,214.424591 1394.338989,211.534164 1399.927124,211.703674 
	C1405.406250,211.869858 1409.900269,215.189377 1411.346191,221.001526 
	C1413.719849,230.541855 1411.995239,241.474152 1401.547852,243.952240 
z"/>
<path fill="#F9FDFE" opacity="1.000000" stroke="none" 
	d="
M913.042725,213.611267 
	C920.528625,217.951401 920.295837,232.744476 916.688232,238.409180 
	C911.713684,246.220108 900.273254,245.980072 895.783508,237.657639 
	C892.354675,231.301682 892.478638,224.496323 895.654419,218.095215 
	C898.790344,211.774597 905.544250,210.119461 913.042725,213.611267 
z"/>
<path fill="#F8FDFD" opacity="1.000000" stroke="none" 
	d="
M641.010986,107.744949 
	C640.055908,117.363670 634.429443,122.836609 626.858521,121.948883 
	C619.709412,121.110619 613.967041,112.839592 615.476868,104.307846 
	C616.215820,100.132149 617.918518,95.632408 620.569153,92.422104 
	C623.496765,88.876297 628.376099,88.216980 632.865417,90.217133 
	C637.795532,92.413727 640.308350,96.564346 640.934326,101.832756 
	C641.148254,103.632935 641.001099,105.476013 641.010986,107.744949 
z"/>
<path fill="#F5FCFD" opacity="1.000000" stroke="none" 
	d="
M1078.726562,232.495697 
	C1083.498535,231.230682 1087.922119,230.157333 1092.364014,229.079529 
	C1093.772461,238.695358 1091.144531,243.520401 1083.667603,245.353729 
	C1079.757446,246.312485 1075.498291,244.433319 1074.380615,240.948425 
	C1073.138794,237.076447 1074.447021,234.183838 1078.726562,232.495697 
z"/>
<path fill="#F5FCFD" opacity="1.000000" stroke="none" 
	d="
M936.319946,91.138626 
	C943.476196,86.741142 950.015991,88.824158 952.476624,95.937950 
	C953.898254,100.047951 952.810547,101.795242 948.453552,101.956909 
	C944.489136,102.104019 940.499817,101.772171 936.549500,102.050102 
	C932.654785,102.324112 931.743896,100.638474 932.971008,97.391273 
	C933.759583,95.304749 934.987488,93.384293 936.319946,91.138626 
z"/>
<path fill="#F5FCFD" opacity="1.000000" stroke="none" 
	d="
M1022.169312,222.998077 
	C1020.547119,222.998032 1019.401733,222.998032 1018.278259,222.998032 
	C1017.779053,215.586777 1021.319702,211.135620 1027.549438,211.004486 
	C1034.213135,210.864227 1037.979492,215.029144 1037.914795,222.998123 
	C1032.834229,222.998123 1027.740234,222.998123 1022.169312,222.998077 
z"/>
<path fill="#F5FCFD" opacity="1.000000" stroke="none" 
	d="
M639.751343,222.975952 
	C638.795105,222.416290 637.805054,221.870453 637.794983,221.307175 
	C637.687988,215.298569 641.987427,210.987061 647.906372,210.998016 
	C654.187683,211.009644 657.907471,215.282684 657.822205,222.981674 
	C651.955688,222.981674 646.064209,222.981674 639.751343,222.975952 
z"/>
</svg>