<svg width="332" height="96" viewBox="0 0 332 96" fill="none"
    xmlns="http://www.w3.org/2000/svg">
    <g clip-path="url(#clip0_26_47)">
        <path d="M41.2816 59.653H27.4698V95.6817H16.9841V59.653H3.11084V50.4867H41.2816V59.653Z" fill="white"/>
        <path d="M46.394 95.6817V50.4867H66.8551C68.9854 50.4867 70.9559 50.9213 72.7696 51.7905C74.5802 52.6597 76.148 53.8257 77.4699 55.2917C78.7886 56.7547 79.8246 58.4013 80.5716 60.2253C81.3155 62.0494 81.6906 63.8949 81.6906 65.7619C81.6906 67.6288 81.3924 69.4008 80.796 71.078C80.1996 72.7552 79.345 74.261 78.2384 75.5984C77.1286 76.9359 75.8099 78.0285 74.2728 78.8763L84.2482 95.6817H72.6743L63.9777 81.1043H56.8797V95.6817H46.394ZM56.8797 72.0023H66.4708C67.3223 72.0023 68.0786 71.7391 68.7395 71.2066C69.4004 70.6771 69.9445 69.9456 70.3687 69.0091C70.793 68.0756 71.0082 66.9953 71.0082 65.7619C71.0082 64.5285 70.7622 63.4603 70.2735 62.5483C69.7816 61.6362 69.176 60.9262 68.4505 60.4151C67.725 59.907 66.9596 59.653 66.148 59.653H56.8766V72.0023H56.8797Z" fill="white"/>
        <path d="M100.679 50.4867H111.994L127.595 95.6817H116.854L113.777 85.5605H98.8312L95.754 95.6817H85.0132L100.679 50.4867ZM111.589 78.3682L106.304 60.9905L101.02 78.3682H111.589Z" fill="white"/>
        <path d="M127.66 72.6389C127.66 69.8813 128.17 67.1758 129.194 64.5223C130.218 61.8719 131.709 59.4633 133.67 57.2964C135.631 55.1326 138.017 53.4034 140.829 52.1088C143.642 50.8142 146.839 50.1684 150.42 50.1684C154.681 50.1684 158.382 51.0804 161.515 52.9045C164.647 54.7286 166.98 57.1066 168.514 60.0325L160.457 65.6333C159.775 64.0204 158.868 62.7686 157.74 61.878C156.609 60.9874 155.373 60.36 154.032 59.9989C152.689 59.6377 151.401 59.4571 150.165 59.4571C148.161 59.4571 146.415 59.8489 144.921 60.6354C143.43 61.422 142.194 62.4718 141.214 63.7878C140.233 65.1038 139.507 66.5668 139.04 68.1797C138.57 69.7926 138.336 71.4055 138.336 73.0184C138.336 74.7996 138.613 76.5197 139.166 78.1754C139.72 79.8312 140.519 81.2941 141.564 82.5673C142.609 83.8405 143.876 84.8504 145.367 85.5911C146.858 86.3348 148.499 86.7051 150.291 86.7051C151.57 86.7051 152.87 86.494 154.192 86.0685C155.514 85.6431 156.738 84.9759 157.869 84.0639C158.997 83.1519 159.861 81.9521 160.457 80.4678L169.025 85.4962C168.13 87.7029 166.658 89.5912 164.613 91.1613C162.566 92.7313 160.254 93.9311 157.675 94.7574C155.096 95.5838 152.551 95.9969 150.033 95.9969C146.75 95.9969 143.734 95.3297 140.986 93.9923C138.238 92.6548 135.871 90.8736 133.888 88.6455C131.905 86.4174 130.371 83.9139 129.283 81.135C128.195 78.356 127.654 75.525 127.654 72.6358L127.66 72.6389Z" fill="white"/>
        <path d="M174.269 95.6817V50.4867H184.755V69.964L201.379 50.4867H213.144L196.135 70.6648L214.293 95.6817H202.274L189.486 77.5388L184.755 82.3775V95.6817H174.269Z" fill="white"/>
        <path d="M249.584 86.5154V95.6817H217.678V50.4867H249.006V59.653H228.164V68.4368H246.067V76.9022H228.164V86.5154H249.584Z" fill="white"/>
        <path d="M255.978 95.6817V50.4867H276.439C278.569 50.4867 280.54 50.9213 282.354 51.7905C284.164 52.6597 285.732 53.8257 287.054 55.2917C288.373 56.7547 289.409 58.4013 290.156 60.2253C290.9 62.0494 291.275 63.8949 291.275 65.7619C291.275 67.6288 290.976 69.4008 290.38 71.078C289.784 72.7552 288.929 74.261 287.822 75.5984C286.713 76.9359 285.394 78.0285 283.857 78.8763L293.832 95.6817H282.258L273.562 81.1043H266.464V95.6817H255.978ZM266.464 72.0023H276.055C276.906 72.0023 277.663 71.7391 278.323 71.2066C278.984 70.6771 279.529 69.9456 279.953 69.0091C280.377 68.0756 280.592 66.9953 280.592 65.7619C280.592 64.5285 280.346 63.4603 279.857 62.5483C279.366 61.6362 278.76 60.9262 278.035 60.4151C277.309 59.907 276.544 59.653 275.732 59.653H266.461V72.0023H266.464Z" fill="white"/>
        <path d="M326.054 63.7909C325.925 63.5797 325.48 63.2491 324.711 62.8023C323.943 62.3555 322.983 61.878 321.834 61.37C320.684 60.8619 319.427 60.4151 318.062 60.0325C316.697 59.65 315.335 59.4602 313.97 59.4602C312.181 59.4602 310.795 59.7663 309.814 60.3784C308.833 60.9874 308.345 61.927 308.345 63.191C308.345 64.204 308.717 65.0028 309.464 65.5935C310.208 66.1842 311.287 66.7014 312.691 67.1422C314.099 67.5859 315.824 68.1001 317.871 68.6908C320.77 69.4498 323.285 70.368 325.415 71.4422C327.545 72.5165 329.178 73.8968 330.306 75.5831C331.434 77.2695 332 79.5037 332 82.2827C332 84.8137 331.529 86.95 330.592 88.7006C329.654 90.4482 328.385 91.8622 326.789 92.9364C325.191 94.0107 323.368 94.7911 321.323 95.2747C319.279 95.7582 317.167 96.0031 314.994 96.0031C312.821 96.0031 310.509 95.7796 308.185 95.3359C305.861 94.889 303.635 94.2524 301.505 93.4261C299.375 92.5997 297.413 91.5898 295.621 90.4023L300.226 81.3002C300.395 81.5145 300.952 81.9062 301.889 82.4785C302.827 83.0508 303.989 83.6477 305.375 84.2598C306.758 84.8749 308.305 85.4166 310.011 85.8819C311.714 86.3501 313.441 86.5827 315.191 86.5827C317.066 86.5827 318.461 86.292 319.378 85.7105C320.294 85.129 320.752 84.3179 320.752 83.2804C320.752 82.1419 320.272 81.2543 319.313 80.6208C318.354 79.9873 317.054 79.418 315.412 78.913C313.77 78.408 311.883 77.8357 309.753 77.2022C306.983 76.3575 304.69 75.4087 302.879 74.3528C301.068 73.2969 299.725 72.0115 298.852 70.4904C297.979 68.9693 297.542 67.0718 297.542 64.7917C297.542 61.6271 298.299 58.9583 299.811 56.7822C301.324 54.6092 303.359 52.9627 305.916 51.8456C308.474 50.7285 311.265 50.1684 314.293 50.1684C316.423 50.1684 318.48 50.4224 320.463 50.9335C322.445 51.4416 324.299 52.0782 326.024 52.8433C327.751 53.6054 329.295 54.3705 330.659 55.1357L326.054 63.7939V63.7909Z" fill="white"/>
        <path d="M13.4647 45.195H2.979V0H13.4647V45.195ZM31.5617 0H42.0474V45.195H31.5617V0Z" fill="white"/>
        <path d="M67.8111 11.9024L57.2608 45.195H46.52L63.0801 0H72.5421L89.1021 45.195H78.3613L67.8111 11.9024Z" fill="white"/>
        <path d="M123.695 9.16632H109.883V45.195H99.3972V9.16632H85.5239V0H123.695V9.16632Z" fill="white"/>
        <path d="M139.293 36.0287H160.713V45.195H128.807V0H160.135V9.16632H139.293V36.0287Z" fill="white"/>
        <path d="M314.773 19.5201H0V25.678H314.773V19.5201Z" fill="#F90000"/>
    </g>
    <defs>
        <clipPath id="clip0_26_47">
            <rect width="332" height="96" fill="white"/>
        </clipPath>
    </defs>
</svg>
