<svg width="18" height="22" viewBox="0 0 18 22" fill="none" xmlns="http://www.w3.org/2000/svg">
<path d="M17.0297 5.76641L11.9859 0.720313C11.8453 0.579688 11.6531 0.5 11.4539 0.5H1.5C1.08516 0.5 0.75 0.835156 0.75 1.25V20.75C0.75 21.1648 1.08516 21.5 1.5 21.5H16.5C16.9148 21.5 17.25 21.1648 17.25 20.75V6.29609C17.25 6.09687 17.1703 5.90703 17.0297 5.76641ZM6.375 8.42187C6.89297 8.42187 7.3125 8.84141 7.3125 9.35937C7.3125 9.87734 6.89297 10.2969 6.375 10.2969C5.85703 10.2969 5.4375 9.87734 5.4375 9.35937C5.4375 8.84141 5.85703 8.42187 6.375 8.42187ZM13.3125 15.3125H4.6875C4.53047 15.3125 4.44375 15.132 4.53984 15.0102L6.87891 12.0289C6.89644 12.0065 6.91885 11.9884 6.94444 11.9759C6.97002 11.9634 6.9981 11.957 7.02656 11.957C7.05502 11.957 7.0831 11.9634 7.10869 11.9759C7.13427 11.9884 7.15668 12.0065 7.17422 12.0289L8.1375 13.257L9.96094 10.932C9.97848 10.9096 10.0009 10.8915 10.0265 10.879C10.0521 10.8666 10.0801 10.8601 10.1086 10.8601C10.1371 10.8601 10.1651 10.8666 10.1907 10.879C10.2163 10.8915 10.2387 10.9096 10.2562 10.932L13.4555 15.0102C13.5562 15.132 13.4672 15.3125 13.3125 15.3125ZM11.1094 6.64062V2.22969L15.5203 6.64062H11.1094Z" fill="white"/>
</svg>
