<svg width="21" height="21" viewBox="0 0 21 21" fill="none" xmlns="http://www.w3.org/2000/svg">
<path d="M17.888 1H3.111C1.94513 1 1 1.94513 1 3.111V17.888C1 19.0538 1.94513 19.999 3.111 19.999H17.888C19.0538 19.999 19.999 19.0538 19.999 17.888V3.111C19.999 1.94513 19.0538 1 17.888 1Z" stroke="#5B5B5B" stroke-width="2" stroke-linecap="round" stroke-linejoin="round"/>
<path d="M6.8059 8.3872C7.68031 8.3872 8.38915 7.67835 8.38915 6.80395C8.38915 5.92955 7.68031 5.2207 6.8059 5.2207C5.9315 5.2207 5.22266 5.92955 5.22266 6.80395C5.22266 7.67835 5.9315 8.3872 6.8059 8.3872Z" stroke="#5B5B5B" stroke-width="2" stroke-linecap="round" stroke-linejoin="round"/>
<path d="M19.9983 13.6662L14.7208 8.38867L3.11035 19.9992" stroke="#5B5B5B" stroke-width="2" stroke-linecap="round" stroke-linejoin="round"/>
</svg>
