<svg width="47" height="38" viewBox="0 0 47 38" fill="none" xmlns="http://www.w3.org/2000/svg">
<path d="M31.5 27L23.5 19L15.5 27" stroke="white" stroke-opacity="0.4" stroke-width="2" stroke-linecap="round" stroke-linejoin="round"/>
<path d="M23.5 19V37" stroke="white" stroke-opacity="0.4" stroke-width="2" stroke-linecap="round" stroke-linejoin="round"/>
<path d="M40.2799 31.78C42.2306 30.7166 43.7716 29.0338 44.6597 26.9973C45.5477 24.9608 45.7323 22.6865 45.1843 20.5334C44.6363 18.3803 43.3869 16.4711 41.6333 15.1069C39.8796 13.7428 37.7216 13.0015 35.4999 13H32.9799C32.3745 10.6585 31.2462 8.4847 29.6798 6.64202C28.1134 4.79933 26.1496 3.33573 23.9361 2.36124C21.7226 1.38676 19.317 0.926747 16.9002 1.01579C14.4833 1.10484 12.1181 1.74063 9.98227 2.87536C7.84649 4.01009 5.99574 5.61424 4.56916 7.56719C3.14259 9.52015 2.1773 11.7711 1.74588 14.1508C1.31446 16.5305 1.42813 18.9771 2.07835 21.3066C2.72856 23.636 3.8984 25.7878 5.49992 27.6" stroke="white" stroke-opacity="0.4" stroke-width="2" stroke-linecap="round" stroke-linejoin="round"/>
<path d="M31.5 27L23.5 19L15.5 27" stroke="white" stroke-opacity="0.4" stroke-width="2" stroke-linecap="round" stroke-linejoin="round"/>
</svg>
